<svg xmlns="http://www.w3.org/2000/svg" xmlns:xlink="http://www.w3.org/1999/xlink" xmlns:lucid="lucid" width="890.39" height="500"><g transform="translate(20 20)" lucid:page-tab-id="0_0"><path d="M0 0h850.4v472.44H0z" fill="#fff"/><path d="M135.2 140h200v320h-200z" stroke="#000" stroke-width="2" fill="#c92d39" fill-opacity=".25"/><use xlink:href="#a" transform="matrix(1,0,0,1,140.1968503937008,145) translate(45.074999999999996 309.62912)"/><path d="M335.2 140h500v320h-500z" stroke="#000" stroke-width="2" fill="#7ab648" fill-opacity=".25"/><use xlink:href="#b" transform="matrix(1,0,0,1,340.19685039370074,145) translate(205.075 309.62912)"/><path d="M135.2 260h700v140h-700z" stroke="#000" stroke-width="2" fill-opacity="0"/><use xlink:href="#c" transform="matrix(1,0,0,1,140.19685039370074,265) translate(541.2592592592592 128.60932266666669)"/><use xlink:href="#d" transform="matrix(1,0,0,1,140.19685039370074,265) translate(624.074074074074 128.60932266666669)"/><path d="M18.26 354.25h100v66.42h-100z" fill="none"/><use xlink:href="#e" transform="matrix(1,0,0,1,18.263818329697585,354.24678420948993) translate(3.643518518518519 8.066666666666654)"/><use xlink:href="#f" transform="matrix(1,0,0,1,18.263818329697585,354.24678420948993) translate(52.093518518518515 8.066666666666654)"/><use xlink:href="#g" transform="matrix(1,0,0,1,18.263818329697585,354.24678420948993) translate(70.98240740740741 8.066666666666654)"/><use xlink:href="#h" transform="matrix(1,0,0,1,18.263818329697585,354.24678420948993) translate(15.653703703703698 21.666666666666657)"/><use xlink:href="#i" transform="matrix(1,0,0,1,18.263818329697585,354.24678420948993) translate(25.09814814814814 21.666666666666657)"/><use xlink:href="#j" transform="matrix(1,0,0,1,18.263818329697585,354.24678420948993) translate(42.28703703703703 21.666666666666657)"/><use xlink:href="#k" transform="matrix(1,0,0,1,18.263818329697585,354.24678420948993) translate(76.19259259259259 21.666666666666657)"/><use xlink:href="#l" transform="matrix(1,0,0,1,18.263818329697585,354.24678420948993) translate(17.25925925925926 35.26666666666666)"/><use xlink:href="#m" transform="matrix(1,0,0,1,18.263818329697585,354.24678420948993) translate(51.25925925925926 35.26666666666666)"/><use xlink:href="#n" transform="matrix(1,0,0,1,18.263818329697585,354.24678420948993) translate(67 35.26666666666666)"/><use xlink:href="#o" transform="matrix(1,0,0,1,18.263818329697585,354.24678420948993) translate(1.912037037037038 48.86666666666666)"/><use xlink:href="#p" transform="matrix(1,0,0,1,18.263818329697585,354.24678420948993) translate(41.547222222222224 48.86666666666666)"/><use xlink:href="#q" transform="matrix(1,0,0,1,18.263818329697585,354.24678420948993) translate(36.4787037037037 62.46666666666666)"/><path d="M834.2 100H153.7M834.17 100h1.03" stroke="#000" stroke-width="2" fill="none"/><path d="M138.43 100l14.27-4.64v9.28z" stroke="#000" stroke-width="2"/><use xlink:href="#r" transform="matrix(1,0,0,1,133.61029453755776,74.39999999999999) translate(0 14.4)"/><use xlink:href="#s" transform="matrix(1,0,0,1,801.1173366488624,74.39999999999999) translate(0 14.4)"/><use xlink:href="#t" transform="matrix(1,0,0,1,422.2468503937008,74.39999999999999) translate(0 14.4)"/><path d="M135.2 140h700v120h-700z" stroke="#000" stroke-width="2" fill-opacity="0"/><use xlink:href="#u" transform="matrix(1,0,0,1,140.19685039370074,145) translate(590.5185185185185 10.666666666666668)"/><use xlink:href="#d" transform="matrix(1,0,0,1,140.19685039370074,145) translate(624.074074074074 10.666666666666668)"/><path d="M335.2 196.8h80v31.43h-80z" fill="none"/><use xlink:href="#v" transform="matrix(1,0,0,1,335.1968503937008,196.80000000000004) translate(3.5138888888888857 19.155555555555555)"/><use xlink:href="#w" transform="matrix(1,0,0,1,335.1968503937008,196.80000000000004) translate(43.221296296296295 19.155555555555555)"/><use xlink:href="#x" transform="matrix(1,0,0,1,335.1968503937008,196.80000000000004) translate(56.36944444444444 19.155555555555555)"/><path d="M356.76 228.4H450v25.26h-93.24z" fill="#fff" fill-opacity="0"/><use xlink:href="#v" transform="matrix(1,0,0,1,361.764894249243,233.40000000000003) translate(5.513888888888886 12.622222222222224)"/><use xlink:href="#y" transform="matrix(1,0,0,1,361.764894249243,233.40000000000003) translate(45.221296296296295 12.622222222222224)"/><use xlink:href="#x" transform="matrix(1,0,0,1,361.764894249243,233.40000000000003) translate(58.36944444444444 12.622222222222224)"/><path d="M495.2 165.2h93.25v31.6H495.2z" fill="#fff" fill-opacity="0"/><use xlink:href="#v" transform="matrix(1,0,0,1,500.19685039370074,170.20000000000005) translate(5.930246913580248 13.997222222222224)"/><use xlink:href="#w" transform="matrix(1,0,0,1,500.19685039370074,170.20000000000005) translate(45.63765432098766 13.997222222222224)"/><use xlink:href="#z" transform="matrix(1,0,0,1,500.19685039370074,170.20000000000005) translate(58.7858024691358 13.997222222222224)"/><path d="M515.2 196.8h100v31.6h-100z" fill="#fff" fill-opacity="0"/><use xlink:href="#v" transform="matrix(1,0,0,1,520.1968503937007,201.80000000000004) translate(8.053703703703704 13.997222222222224)"/><use xlink:href="#w" transform="matrix(1,0,0,1,520.1968503937007,201.80000000000004) translate(47.76111111111111 13.997222222222224)"/><use xlink:href="#A" transform="matrix(1,0,0,1,520.1968503937007,201.80000000000004) translate(60.90925925925926 13.997222222222224)"/><path d="M555.77 222.06h86.28v31.6h-86.28z" fill="#fff" fill-opacity="0"/><use xlink:href="#v" transform="matrix(1,0,0,1,560.7652250567075,227.05711616414592) translate(2.0138888888888857 13.997222222222224)"/><use xlink:href="#w" transform="matrix(1,0,0,1,560.7652250567075,227.05711616414592) translate(41.721296296296295 13.997222222222224)"/><use xlink:href="#B" transform="matrix(1,0,0,1,560.7652250567075,227.05711616414592) translate(54.86944444444444 13.997222222222224)"/><g fill="none"><path d="M614.8 325.93v50.86H335.2v-50.87z"/><path d="M335.2 325.93c0 9.65 7.82 17.47 17.47 17.47h104.86c9.65 0 17.47 7.83 17.47 17.48 0-9.65 7.83-17.48 17.48-17.48h104.85c9.65 0 17.48-7.82 17.48-17.47" stroke="#000"/></g><use xlink:href="#C" transform="matrix(1,-2.4492935982947064e-16,2.4492935982947064e-16,1,340.1968503937007,372.5717579833847) translate(70.68364197530863 3.6888888888888864)"/><use xlink:href="#D" transform="matrix(1,-2.4492935982947064e-16,2.4492935982947064e-16,1,340.1968503937007,372.5717579833847) translate(153.77993827160492 3.6888888888888864)"/><path d="M335.2 273.27h60v13.93h-60z" fill="#fff" fill-opacity="0"/><path d="M335.83 281.52l.43-.05c.17 1 .67 1.88 1.9 2.3.5.2 1.07.28 1.64.28 1.7 0 3.38-.8 3.38-2.53 0-1.87-4.58-1.4-4.58-4.52 0-2.37 3.26-3.45 4.56-3.45 1.75 0 3.22.48 3.22 1.7 0 .5-.3 1.32-1.15 1.32-.47 0-.93-.37-.93-.84 0-.66.5-.75.5-1 0-.56-1-.56-1.64-.56-.76 0-3.13.56-3.13 2.35 0 2.13 5.13 1.63 5.13 4.63 0 1.57-2.43 3.58-5.26 3.58-3 0-4.07-1.43-4.07-3.2M359.72 282.58l.26.3c-.86.92-2 1.9-3.2 1.9-2.38 0-2.15-2.48-3.5-4.05-.25-.26-1.3-.85-1.38-.85l.15-.38c2.97-.28 4.52-2 4.52-3.15 0-1.53-.82-1.95-3-1.95-.57 0-.7.2-.8.57l-1.94 6.6c-.45 1.55-1.05 3.16-3.5 3.16l.14-.4c.7 0 .95-.58 1.35-1.95l1.5-5.25c.25-.78.5-1.55.5-1.93 0-.37-.15-.6-.75-.6-1.45 0-2.3.87-2.8 1.22l-.25-.32c1.73-1.8 3.33-1.8 5.83-1.8 4.63 0 5.45.9 5.45 2.43 0 1.2-.72 2.77-4.22 3.7v.05c2.5.95 1.4 3.87 3.25 3.87.97 0 1.8-.58 2.4-1.17M366.63 273.7l.1.38c-1.93.57-3.68 3.55-3.68 6.82 0 2.28 1.15 3.33 2.75 3.33 1.25 0 2.72-.9 3.77-2.36.85-1.2 1.4-2.75 1.4-4.8 0-1.67-.97-2.55-1.95-2.55-1 0-1.97.7-1.97 1.8 0 .4.18.6.6.6.15 0 .28-.07.58-.07.42 0 .5.27.5.55 0 .62-.68 1.2-1.35 1.2-.96 0-1.45-.73-1.45-1.67 0-1.65 1.9-3.35 4-3.35 1.94 0 2.86 1.8 2.86 3.5 0 1.94-1.03 4.05-2.25 5.37-1.4 1.5-3.22 2.45-5.35 2.45-2.15 0-3.93-1.22-3.93-3.72 0-4.15 3-7.1 5.36-7.48M382.77 273.7l-.1.4c-1.57 0-2.25.08-2.78 1.95l-1.98 6.83c-.02.07-.05.22-.05.4 0 .4.4.54.8.54.85 0 1.83-.3 2.8-1.22l.3.32c-1.4 1.36-2.9 1.8-4.82 1.8h-3.4l.1-.4c1.25 0 2.07 0 2.6-1.85l1.74-6.04c.1-.35.3-.93.3-1.26 0-.44-.36-.54-.8-.54-.7 0-2.05.42-2.8 1.22l-.3-.32c1.22-1.2 2.47-1.83 5.24-1.83h3.13M394.12 284.58h.4c-.68 2.2-2.43 2.34-3.87 2.34-1.56 0-3.1-.9-4.56-1.27-.78-.2-1.46-.32-2.08-.32v-.4c1.9-.7 3.55-.8 4.47-1 2.35-.46 4.05-2.95 4.05-5.6 0-1.75-.1-4.1-2.48-4.1-2.85 0-4.83 2.8-4.83 5.75 0 1.47 1.06 2.42 2.4 2.42.7 0 1.4-.12 2.15-.7l.22.3c-.77.75-2.1 1.23-3.45 1.23-1 0-1.97-.3-2.57-1.13-.3-.42-.5-.95-.5-1.6 0-3.57 3.42-6.95 6.87-6.95 2.73 0 3.97 1.88 3.97 4.05 0 2.63-1.5 5.08-4.07 6.38-.57.3-1.65.65-2.35.75l-.02.07c1.15.37 2.84 1.23 4.04 1.23 1.26 0 1.98-.76 2.18-1.45"/><path d="M355.2 298.8h65.18v14.45H355.2z" fill="#fff" fill-opacity="0"/><path d="M355.83 309.13l.43-.05c.17 1.02.67 1.88 1.9 2.32.5.18 1.07.26 1.64.26 1.7 0 3.38-.8 3.38-2.53 0-1.87-4.58-1.4-4.58-4.52 0-2.36 3.26-3.44 4.56-3.44 1.75 0 3.22.48 3.22 1.7 0 .5-.3 1.32-1.15 1.32-.47 0-.93-.37-.93-.83 0-.67.5-.75.5-1 0-.57-1-.57-1.64-.57-.76 0-3.13.56-3.13 2.35 0 2.13 5.13 1.63 5.13 4.63 0 1.57-2.43 3.6-5.26 3.6-3 0-4.07-1.45-4.07-3.23M380.47 301.3l-.17.4c-.72 0-.85.46-1.15 1.55l-2 7.1c-.1.35-.12.65-.12.88 0 .47.27.68.9.68.44 0 .72-.12 1.05-.44l.25.32c-.55.63-1.6.92-2.3.92-.7 0-1.76-.35-1.76-1.4 0-.2 0-.37.08-.6l1.18-4.2c-.15.08-.36.23-.5.23h-4.3l-1.13 4.07c-.4 1.4-1.37 1.55-3.15 1.55l.17-.4c.7-.07 1-.42 1.3-1.47l1.58-5.68c.03-.1.45-1.74.45-2.02 0-.37-.12-.57-.65-.57-1.2 0-2.38.85-2.87 1.26l-.26-.3c.76-.88 2.33-1.88 4.46-1.88.87 0 1.2.4 1.2 1.25 0 .43-.15 1-.35 1.7l-.6 2.05c.2-.03.34-.22.5-.22h4.3l.92-3.23c.43-1.5 1.17-1.52 2.97-1.52M386.48 301.3l.1.4c-1.93.56-3.68 3.55-3.68 6.8 0 2.3 1.15 3.35 2.75 3.35 1.25 0 2.72-.9 3.77-2.37.85-1.2 1.4-2.75 1.4-4.8 0-1.67-.97-2.55-1.95-2.55-1 0-1.97.7-1.97 1.8 0 .42.18.62.6.62.15 0 .28-.1.58-.1.42 0 .5.28.5.56 0 .63-.68 1.2-1.35 1.2-.96 0-1.45-.72-1.45-1.65 0-1.65 1.9-3.36 4-3.36 1.94 0 2.86 1.78 2.86 3.5 0 1.93-1.02 4.05-2.24 5.36-1.4 1.5-3.22 2.45-5.35 2.45-2.15 0-3.93-1.2-3.93-3.7 0-4.15 3-7.12 5.36-7.5M402.62 301.3l-.1.4c-1.57 0-2.25.1-2.78 1.96l-1.97 6.84c-.02.06-.05.2-.05.4 0 .4.4.53.8.53.85 0 1.83-.3 2.8-1.22l.3.33c-1.4 1.37-2.9 1.82-4.82 1.82h-3.4l.1-.4c1.25 0 2.07 0 2.6-1.87l1.74-6.03c.1-.35.3-.94.3-1.27 0-.44-.35-.54-.8-.54-.7 0-2.04.42-2.8 1.22l-.3-.3c1.23-1.22 2.48-1.85 5.25-1.85h3.12M413.82 310.26h.02c2.35-7.76 2.8-9.35 3.18-9.93.5-.77 1.12-1.24 1.9-1.24.82 0 1.45.6 1.45 1.4 0 .56-.3 1-.88 1-.8 0-.7-.96-1.23-.96-.9 0-1.18 1.22-1.35 1.74l-3.18 10.47h-.34c-1.56-2.14-3.08-4.65-4.3-7.94h-.03c-.6 2.9-1.75 8.16-4.32 8.16-.8 0-1.45-.6-1.45-1.4 0-.56.3-1 .9-1 .8 0 .67.95 1.2.95 2 0 3.04-7.55 3.64-10.34h.45c1.3 3.25 2.57 6.84 4.32 9.1"/><path d="M483.72 275.35h51.48v11.85h-51.48z" fill="#fff" fill-opacity="0"/><path d="M492.23 284.27l.27.3c-.87.9-1.83 1.53-2.87 1.9-.76.28-1.58.4-2.45.4-1.38 0-2.8-.62-2.8-2 0-2.04 1.97-3.32 3.55-3.95-.73-.35-1.36-.7-1.36-1.84 0-1.93 2.9-3.45 4.56-3.45 1.5 0 2.57.54 2.57 1.65 0 .3-.28 1.3-1.2 1.3-.47 0-.9-.36-.9-.83 0-.67.5-.78.5-1 0-.43-.25-.57-.78-.57-1.7 0-3.32 1.2-3.32 2.4 0 .94.93 1.47 2.23 1.47h1.14l-.15.63c-1.87 0-5.05 1.47-5.05 3.8 0 1 .85 1.5 2.08 1.5 1.38 0 3.13-.83 3.98-1.7M504.3 284.42l.3.3c-1 1-2.55 2.2-4.62 2.2-.6 0-1.03-.1-1.46-.2-.55-.1-1.07-.24-1.84-.24-.73 0-1.73.32-2.48.32l.1-.4c.55 0 1.02-.42 1.3-1.55l1.17-4.73c.8-3.22 3.38-4.5 5.06-4.5 1.2 0 1.62.93 1.62 1.85 0 .83-.6 1.38-1.35 1.38-.5 0-.83-.4-.83-.85 0-.8.83-.68.83-1.07 0-.28-.12-.63-.97-.63-3.08 0-2.16 6.08-4.4 8.97v.06c.4-.28 1.37-.36 1.9-.36 1.7 0 1.32.83 2.8.83.95 0 1.96-.52 2.87-1.38M518.8 283.13h-3.65v3.67h-1.1v-3.67h-3.65v-1.1h3.65v-3.66h1.1v3.66h3.65v1.1M533.76 283.13h-3.65v3.67H529v-3.67h-3.65v-1.1H529v-3.66h1.1v3.66h3.66v1.1"/><path d="M515.2 294.04h66.14v11.92H515.2z" fill="#fff" fill-opacity="0"/><path d="M516 296.6l-.24-.33c.75-.7 1.52-1.15 2.37-1.4 1.07-.35 2.23-.4 3.55-.4 5.12 0 6.65 1.1 6.65 4 0 2.87-1.9 7.02-7.98 7.02h-4.3l.13-.4c.7 0 .98-.4 1.28-1.46l1.62-5.62c.23-.8.55-1.63.55-2 0-.38-.15-.63-.75-.63-1.32 0-2.42.82-2.87 1.2m5.55-.88l-2.42 8.32c-.07.22-.08.35-.08.44 0 .3.35.35.98.35 1.58 0 6.47-.67 6.47-6.3 0-2.17-1.04-3.4-4.12-3.4-.4 0-.75.28-.83.6M539.15 303.1l.28.3c-.98 1-2.53 2.2-4.6 2.2-.6 0-1.03-.07-1.46-.17-.55-.12-1.07-.25-1.84-.25-.73 0-1.73.3-2.48.3l.1-.4c.55 0 1.02-.4 1.3-1.54l1.17-4.73c.8-3.2 3.38-4.48 5.06-4.48 1.2 0 1.62.92 1.62 1.84 0 .83-.6 1.38-1.35 1.38-.5 0-.83-.4-.83-.85 0-.8.83-.7.83-1.08 0-.28-.12-.63-.97-.63-3.08 0-2.16 6.08-4.4 8.96v.07c.4-.3 1.37-.37 1.9-.37 1.7 0 1.32.83 2.8.83.95 0 1.95-.52 2.87-1.4M549.07 301.83h-5.25v-1.1h5.25v1.1M563.37 303.1l.28.3c-.98 1-2.53 2.2-4.6 2.2-.6 0-1.03-.07-1.46-.17-.56-.12-1.08-.25-1.85-.25-.73 0-1.73.3-2.48.3l.1-.4c.55 0 1.02-.4 1.3-1.54l1.17-4.73c.8-3.2 3.38-4.48 5.06-4.48 1.2 0 1.62.92 1.62 1.84 0 .83-.6 1.38-1.35 1.38-.5 0-.83-.4-.83-.85 0-.8.83-.7.83-1.08 0-.28-.12-.63-.97-.63-3.08 0-2.16 6.08-4.4 8.96v.07c.4-.3 1.37-.37 1.9-.37 1.7 0 1.32.83 2.8.83.95 0 1.95-.52 2.87-1.4M568.74 295.5c0 .47-.4.86-.82.86-.48 0-.8-.35-.8-.9 0-.5.33-.87.78-.87s.84.42.84.9m-.7 8.1l.2.18c-.9 1.4-1.44 1.9-2.27 1.9-.55 0-.82-.3-.82-.92 0-.33.12-.92.37-1.85l.8-2.94c.08-.3.15-.6.15-.74 0-.33-.17-.38-1.07-.4v-.26c.65-.05 1-.1 2.67-.42l.07.05-1.57 5.7c-.08.3-.17.5-.17.74 0 .17.1.25.24.25.28 0 .68-.36 1.4-1.3M573.9 298.36l-.08.53h-1.4l-1.45 5.46c-.02.07-.03.18-.03.23 0 .2.1.26.25.26.25 0 .52-.27 1.34-1.32l.2.12c-1 1.53-1.5 2.02-2.37 2.02-.45 0-.77-.2-.77-.62 0-.18.14-.7.27-1.23l1.3-4.94h-1.25l-.02-.1c0-.2.15-.34.55-.43.54-.1 1.62-.93 2.22-1.83.07-.1.17-.15.23-.15.1 0 .15.04.15.12v.12l-.48 1.72h1.34M579.9 303.68l.2.2c-.96 1.16-2.03 1.8-3.4 1.8-1.36 0-2.26-.9-2.26-2.3 0-2.57 2.48-5.24 4.98-5.24.9 0 1.37.43 1.37 1.13 0 1.44-1.76 2.74-4.74 3.12-.17.33-.17.76-.17 1 0 .93.6 1.53 1.54 1.53.73 0 1.25-.27 2.45-1.25m-3.44-2.4l-.3.75c1.45-.35 2.08-.65 2.7-1.24.5-.5.83-1.1.83-1.63 0-.4-.13-.65-.6-.65-.94 0-2.08 1.3-2.64 2.77"/><path d="M578.45 314.07h36.75v11.86h-36.75z" fill="#fff" fill-opacity="0"/><path d="M579.27 316.62l-.25-.3c.75-.73 1.5-1.16 2.36-1.43 1.07-.34 2.24-.4 3.55-.4 5.12 0 6.66 1.1 6.66 4 0 2.88-1.92 7.03-8 7.03h-4.28l.1-.4c.7 0 1-.4 1.3-1.45l1.6-5.62c.25-.8.56-1.64.56-2.02 0-.37-.15-.62-.75-.62-1.3 0-2.4.84-2.86 1.2m5.53-.86l-2.42 8.32c-.06.2-.08.35-.08.43 0 .3.35.36.98.36 1.6 0 6.47-.67 6.47-6.3 0-2.17-1.03-3.4-4.12-3.4-.4 0-.75.28-.83.6M602.4 323.14l.3.3c-1 1-2.55 2.2-4.6 2.2-.6 0-1.05-.08-1.48-.18-.55-.12-1.07-.25-1.83-.25-.75 0-1.75.33-2.5.33l.1-.4c.55 0 1.02-.42 1.3-1.55l1.17-4.74c.8-3.22 3.38-4.48 5.07-4.48 1.18 0 1.6.9 1.6 1.83 0 .82-.6 1.37-1.34 1.37-.5 0-.83-.4-.83-.85 0-.8.83-.68.83-1.06 0-.3-.1-.64-.96-.64-3.1 0-2.17 6.1-4.42 8.97v.06c.42-.28 1.38-.37 1.9-.37 1.72 0 1.33.83 2.8.83.97 0 1.97-.52 2.88-1.4M608.2 314.5h1.65c4.64 0 5.34 1.04 5.34 2.66 0 1.55-1.13 4.57-6.6 4.57l.15-.4c2.97-.3 4.72-1.9 4.72-4.1 0-1.52-.8-2.07-2.97-2.07-.58 0-.7.26-.93 1l-2.1 7.38c-.33 1.17-1.17 2-3.18 2l.12-.4c.7 0 .97-.6 1.37-1.96l1.47-5.1c.25-.87.5-1.7.5-2.1 0-.36-.17-.56-.77-.56-1.45 0-2.26.9-2.7 1.2l-.3-.3c1.64-1.58 3.05-1.83 4.2-1.83"/><path d="M675.2 356.8h160v20h-160z" fill="#fff" fill-opacity="0"/><use xlink:href="#E" transform="matrix(1,0,0,1,680.1968503937007,361.7900587714116) translate(8.492283950617292 12.622222222222224)"/><use xlink:href="#F" transform="matrix(1,0,0,1,680.1968503937007,361.7900587714116) translate(103.86018518518519 12.622222222222224)"/><path d="M135.2 356.8h90v24.46h-90z" fill="#fff" fill-opacity="0"/><use xlink:href="#G" transform="matrix(1,0,0,1,140.1968503937008,361.7900587714116) translate(2.9475308641975317 12.444444444444446)"/><use xlink:href="#H" transform="matrix(1,0,0,1,140.1968503937008,361.7900587714116) translate(37.385802469135804 12.444444444444446)"/><use xlink:href="#I" transform="matrix(1,0,0,1,140.1968503937008,361.7900587714116) translate(21.441358024691354 31.111111111111118)"/><path d="M195.2 160h110v31.43h-110z" fill="none"/><use xlink:href="#v" transform="matrix(1,0,0,1,195.19685039370077,160) translate(9.3320987654321 19.155555555555555)"/><use xlink:href="#w" transform="matrix(1,0,0,1,195.19685039370077,160) translate(49.03950617283951 19.155555555555555)"/><use xlink:href="#J" transform="matrix(1,0,0,1,195.19685039370077,160) translate(62.187654320987654 19.155555555555555)"/><path d="M225.2 184.3h110v31.4h-110z" fill="none"/><use xlink:href="#v" transform="matrix(1,0,0,1,225.19685039370074,184.28576767170824) translate(9.3320987654321 19.155555555555555)"/><use xlink:href="#y" transform="matrix(1,0,0,1,225.19685039370074,184.28576767170824) translate(49.03950617283951 19.155555555555555)"/><use xlink:href="#J" transform="matrix(1,0,0,1,225.19685039370074,184.28576767170824) translate(62.187654320987654 19.155555555555555)"/><path d="M348.95 272.27v-25.54" stroke="#000" stroke-width="2" fill="none"/><path d="M349.95 273.27h-2v-1.03h2z"/><path d="M348.95 231.46l4.64 14.27h-9.28z" stroke="#000" stroke-width="2"/><path d="M403.4 297.8v-25.64" stroke="#000" stroke-width="2" fill="none"/><path d="M404.4 298.8h-2v-1h2z"/><path d="M403.4 256.9l4.63 14.26h-9.28z" stroke="#000" stroke-width="2"/><path d="M512.27 274.35V215.3" stroke="#000" stroke-width="2" fill="none"/><path d="M513.27 275.35h-2v-1.03h2z"/><path d="M512.27 200.04l4.63 14.26h-9.27z" stroke="#000" stroke-width="2"/><path d="M543.7 293.04V246.9" stroke="#000" stroke-width="2" fill="none"/><path d="M544.7 294.04h-2V293h2z"/><path d="M543.7 231.64l4.64 14.26h-9.27z" stroke="#000" stroke-width="2"/><path d="M598.9 313.07v-40.9" stroke="#000" stroke-width="2" fill="none"/><path d="M599.9 314.07h-2v-1.02h2z"/><path d="M598.9 256.9l4.64 14.26h-9.27z" stroke="#000" stroke-width="2"/><path d="M15.2 255.77h100v31.43h-100z" fill="none"/><g><use xlink:href="#K" transform="matrix(1,0,0,1,15.1968503937008,255.77326809372278) translate(8.375 19.6)"/><use xlink:href="#L" transform="matrix(1,0,0,1,15.1968503937008,255.77326809372278) translate(53.675 19.6)"/><use xlink:href="#M" transform="matrix(1,0,0,1,15.1968503937008,255.77326809372278) translate(68.675 19.6)"/></g><path d="M38.26 323.03h60v13.95h-60z" fill="#fff" fill-opacity="0"/><path d="M38.9 331.3l.43-.06c.17 1 .67 1.88 1.9 2.3.5.2 1.07.28 1.63.28 1.7 0 3.4-.8 3.4-2.53 0-1.88-4.6-1.4-4.6-4.53 0-2.37 3.27-3.45 4.57-3.45 1.75 0 3.22.48 3.22 1.7 0 .5-.3 1.32-1.15 1.32-.47 0-.93-.37-.93-.84 0-.66.5-.75.5-1 0-.56-1-.56-1.64-.56-.77 0-3.13.56-3.13 2.35 0 2.12 5.13 1.62 5.13 4.62 0 1.57-2.43 3.58-5.27 3.58-2.98 0-4.06-1.43-4.06-3.2M62.78 332.35l.27.3c-.87.92-2.02 1.9-3.2 1.9-2.38 0-2.15-2.48-3.52-4.05-.23-.26-1.28-.85-1.36-.85l.15-.38c2.96-.28 4.5-2 4.5-3.15 0-1.53-.8-1.95-2.97-1.95-.58 0-.72.2-.82.57l-1.93 6.6c-.45 1.55-1.05 3.16-3.52 3.16l.15-.4c.7 0 .95-.58 1.35-1.95l1.52-5.25c.23-.78.5-1.55.5-1.93 0-.37-.17-.6-.77-.6-1.45 0-2.3.87-2.78 1.22l-.27-.33c1.74-1.8 3.34-1.8 5.84-1.8 4.63 0 5.45.9 5.45 2.43 0 1.2-.72 2.77-4.22 3.7v.05c2.48.95 1.4 3.87 3.25 3.87.97 0 1.78-.58 2.38-1.17M69.7 323.47l.1.38c-1.93.57-3.68 3.55-3.68 6.82 0 2.28 1.15 3.33 2.75 3.33 1.25 0 2.72-.9 3.77-2.36.85-1.2 1.4-2.75 1.4-4.8 0-1.67-.97-2.55-1.95-2.55-1 0-1.98.7-1.98 1.8 0 .4.18.6.6.6.15 0 .28-.08.58-.08.42 0 .5.27.5.55 0 .62-.68 1.2-1.35 1.2-.97 0-1.45-.73-1.45-1.67 0-1.65 1.9-3.35 4-3.35 1.94 0 2.85 1.8 2.85 3.5 0 1.94-1 4.05-2.23 5.37-1.4 1.5-3.22 2.45-5.35 2.45-2.15 0-3.94-1.22-3.94-3.72 0-4.15 3-7.1 5.37-7.48M85.84 323.47l-.1.4c-1.57 0-2.25.08-2.8 1.95L81 332.65c-.03.07-.06.22-.06.4 0 .4.4.54.8.54.85 0 1.83-.3 2.8-1.23l.3.32c-1.4 1.35-2.9 1.8-4.82 1.8h-3.4l.1-.4c1.25 0 2.07 0 2.6-1.86l1.73-6.04c.1-.35.3-.93.3-1.26 0-.44-.35-.54-.8-.54-.7 0-2.03.42-2.8 1.22l-.28-.32c1.22-1.2 2.47-1.83 5.23-1.83h3.14M97.2 334.35h.4c-.7 2.2-2.44 2.34-3.88 2.34-1.57 0-3.1-.9-4.57-1.28-.76-.2-1.45-.32-2.06-.32v-.4c1.9-.7 3.54-.8 4.45-1 2.37-.46 4.07-2.95 4.07-5.6 0-1.75-.1-4.1-2.48-4.1-2.85 0-4.84 2.8-4.84 5.75 0 1.47 1.07 2.42 2.42 2.42.68 0 1.4-.12 2.13-.7l.24.3c-.78.75-2.1 1.23-3.46 1.23-1 0-1.97-.3-2.57-1.13-.3-.42-.5-.95-.5-1.6 0-3.57 3.42-6.95 6.87-6.95 2.73 0 3.97 1.88 3.97 4.05 0 2.63-1.5 5.08-4.06 6.38-.57.3-1.65.65-2.35.75l-.03.07c1.15.37 2.83 1.23 4.04 1.23 1.27 0 2-.76 2.2-1.45"/><path d="M65.42 322.03V305.7" stroke="#000" stroke-width="2" fill="none"/><path d="M66.42 323.03h-2V322h2z"/><path d="M65.42 290.44l4.63 14.26h-9.27z" stroke="#000" stroke-width="2"/><path d="M248.67 368.4l29.25 1.54 29.13 2.77L404 388.4l12.45 1.73v2.03l-12.74-1.78-96.9-15.65-29.03-2.76-29.17-1.55-22.42-.36.03-2zm408.05-.23l-10.52.22-27.22 1.7-26.9 2.83-29.88 4.43-77.95 14.1v-2.05l77.63-14 29.95-4.46 27-2.84 27.3-1.7 10.54-.23zM671.96 366.86l-14.17 4.93-.2-9.28z"/><path d="M675.2 366.8l-18.38 6.38-.25-12.02zm-16.44 3.6l9.96-3.48-10.1-3.05zM226.24 368.04l-.03 2-1-.02v-2z"/><g><use xlink:href="#N" transform="matrix(1,0,0,1,416.45269454052993,388.1175500258797) translate(0.005000000000002558 7.288888888888889)"/><use xlink:href="#O" transform="matrix(1,0,0,1,416.45269454052993,388.1175500258797) translate(9.622283950617286 7.288888888888889)"/><use xlink:href="#P" transform="matrix(1,0,0,1,416.45269454052993,388.1175500258797) translate(17.214876543209876 7.288888888888889)"/><use xlink:href="#Q" transform="matrix(1,0,0,1,416.45269454052993,388.1175500258797) translate(44.016728395061726 7.288888888888889)"/><use xlink:href="#R" transform="matrix(1,0,0,1,416.45269454052993,388.1175500258797) translate(60.21425925925926 7.288888888888889)"/></g><path d="M0 0h850.4v40H0z" fill="none"/><g><use xlink:href="#S" transform="matrix(1,0,0,1,5,5) translate(328.575 18.6)"/><use xlink:href="#T" transform="matrix(1,0,0,1,5,5) translate(423.425 18.6)"/></g><path d="M533.98 10h72.04v20h-72.04z" fill="none"/><g><use xlink:href="#U" transform="matrix(1,0,0,1,538.9752005464426,15) translate(4.419753086419757 7.288888888888889)"/><use xlink:href="#V" transform="matrix(1,0,0,1,538.9752005464426,15) translate(23.14814814814815 7.288888888888889)"/><use xlink:href="#W" transform="matrix(1,0,0,1,538.9752005464426,15) translate(38.33333333333333 7.288888888888889)"/></g><path d="M324.72 40h209.26v20H324.72z" fill="none"/><g><use xlink:href="#X" transform="matrix(1,0,0,1,329.72197093121827,45) translate(11.395061728395078 7.111111111111111)"/><use xlink:href="#Y" transform="matrix(1,0,0,1,329.72197093121827,45) translate(45.41975308641976 7.111111111111111)"/><use xlink:href="#Z" transform="matrix(1,0,0,1,329.72197093121827,45) translate(58.25925925925927 7.111111111111111)"/><use xlink:href="#aa" transform="matrix(1,0,0,1,329.72197093121827,45) translate(89.81481481481481 7.111111111111111)"/><use xlink:href="#ab" transform="matrix(1,0,0,1,329.72197093121827,45) translate(124.82716049382715 7.111111111111111)"/><use xlink:href="#ac" transform="matrix(1,0,0,1,329.72197093121827,45) translate(134.18518518518516 7.111111111111111)"/><use xlink:href="#ad" transform="matrix(1,0,0,1,329.72197093121827,45) translate(149 7.111111111111111)"/><use xlink:href="#ae" transform="matrix(1,0,0,1,329.72197093121827,45) translate(171.34567901234567 7.111111111111111)"/></g><path d="M735.2 117h100v26h-100z" fill="none"/><g><use xlink:href="#af" transform="matrix(1,0,0,1,740.1968503937007,122) translate(9.305555555555564 9.333333333333332)"/><use xlink:href="#ag" transform="matrix(1,0,0,1,740.1968503937007,122) translate(32.620370370370374 9.333333333333332)"/><use xlink:href="#ah" transform="matrix(1,0,0,1,740.1968503937007,122) translate(56.28703703703703 9.333333333333332)"/></g><path d="M775.2 400h60v20.67h-60z" fill="none"/><g><use xlink:href="#ai" transform="matrix(1,0,0,1,780.1968503937007,405) translate(4.061728395061728 7.277777777777778)"/><use xlink:href="#aj" transform="matrix(1,0,0,1,780.1968503937007,405) translate(28.679012345679013 7.277777777777778)"/></g><defs><path d="M232-93c-1 65-40 97-104 97C67 4 28-28 28-90v-158h33c8 89-33 224 67 224 102 0 64-133 71-224h33v155" id="ak"/><path d="M117-194c89-4 53 116 60 194h-32v-121c0-31-8-49-39-48C34-167 62-67 57 0H25l-1-190h30c1 10-1 24 2 32 11-22 29-35 61-36" id="al"/><path d="M85-194c31 0 48 13 60 33l-1-100h32l1 261h-30c-2-10 0-23-3-31C134-8 116 4 85 4 32 4 16-35 15-94c0-66 23-100 70-100zm9 24c-40 0-46 34-46 75 0 40 6 74 45 74 42 0 51-32 51-76 0-42-9-74-50-73" id="am"/><path d="M100-194c63 0 86 42 84 106H49c0 40 14 67 53 68 26 1 43-12 49-29l28 8c-11 28-37 45-77 45C44 4 14-33 15-96c1-61 26-98 85-98zm52 81c6-60-76-77-97-28-3 7-6 17-6 28h103" id="an"/><path d="M96-169c-40 0-48 33-48 73s9 75 48 75c24 0 41-14 43-38l32 2c-6 37-31 61-74 61-59 0-76-41-82-99-10-93 101-131 147-64 4 7 5 14 7 22l-32 3c-4-21-16-35-41-35" id="ao"/><path d="M24-231v-30h32v30H24zM24 0v-190h32V0H24" id="ap"/><path d="M141-36C126-15 110 5 73 4 37 3 15-17 15-53c-1-64 63-63 125-63 3-35-9-54-41-54-24 1-41 7-42 31l-33-3c5-37 33-52 76-52 45 0 72 20 72 64v82c-1 20 7 32 28 27v20c-31 9-61-2-59-35zM48-53c0 20 12 33 32 33 41-3 63-29 60-74-43 2-92-5-92 41" id="aq"/><path d="M115-194c53 0 69 39 70 98 0 66-23 100-70 100C84 3 66-7 56-30L54 0H23l1-261h32v101c10-23 28-34 59-34zm-8 174c40 0 45-34 45-75 0-40-5-75-45-74-42 0-51 32-51 76 0 43 10 73 51 73" id="ar"/><path d="M24 0v-261h32V0H24" id="as"/><g id="a"><use transform="matrix(0.05,0,0,0.05,0,0)" xlink:href="#ak"/><use transform="matrix(0.05,0,0,0.05,12.950000000000001,0)" xlink:href="#al"/><use transform="matrix(0.05,0,0,0.05,22.950000000000003,0)" xlink:href="#am"/><use transform="matrix(0.05,0,0,0.05,32.95,0)" xlink:href="#an"/><use transform="matrix(0.05,0,0,0.05,42.95,0)" xlink:href="#ao"/><use transform="matrix(0.05,0,0,0.05,51.95,0)" xlink:href="#ap"/><use transform="matrix(0.05,0,0,0.05,55.900000000000006,0)" xlink:href="#am"/><use transform="matrix(0.05,0,0,0.05,65.9,0)" xlink:href="#aq"/><use transform="matrix(0.05,0,0,0.05,75.9,0)" xlink:href="#ar"/><use transform="matrix(0.05,0,0,0.05,85.9,0)" xlink:href="#as"/><use transform="matrix(0.05,0,0,0.05,89.85000000000001,0)" xlink:href="#an"/></g><path d="M30-248c118-7 216 8 213 122C240-48 200 0 122 0H30v-248zM63-27c89 8 146-16 146-99s-60-101-146-95v194" id="at"/><g id="b"><use transform="matrix(0.05,0,0,0.05,0,0)" xlink:href="#at"/><use transform="matrix(0.05,0,0,0.05,12.950000000000001,0)" xlink:href="#an"/><use transform="matrix(0.05,0,0,0.05,22.950000000000003,0)" xlink:href="#ao"/><use transform="matrix(0.05,0,0,0.05,31.950000000000003,0)" xlink:href="#ap"/><use transform="matrix(0.05,0,0,0.05,35.900000000000006,0)" xlink:href="#am"/><use transform="matrix(0.05,0,0,0.05,45.900000000000006,0)" xlink:href="#aq"/><use transform="matrix(0.05,0,0,0.05,55.900000000000006,0)" xlink:href="#ar"/><use transform="matrix(0.05,0,0,0.05,65.9,0)" xlink:href="#as"/><use transform="matrix(0.05,0,0,0.05,69.85000000000001,0)" xlink:href="#an"/></g><path d="M240 0l2-218c-23 76-54 145-80 218h-23L58-218 59 0H30v-248h44l77 211c21-75 51-140 76-211h43V0h-30" id="au"/><path d="M59-47c-2 24 18 29 38 22v24C64 9 27 4 27-40v-127H5v-23h24l9-43h21v43h35v23H59v120" id="av"/><path d="M106-169C34-169 62-67 57 0H25v-261h32l-1 103c12-21 28-36 61-36 89 0 53 116 60 194h-32v-121c2-32-8-49-39-48" id="aw"/><path d="M210-169c-67 3-38 105-44 169h-31v-121c0-29-5-50-35-48C34-165 62-65 56 0H25l-1-190h30c1 10-1 24 2 32 10-44 99-50 107 0 11-21 27-35 58-36 85-2 47 119 55 194h-31v-121c0-29-5-49-35-48" id="ax"/><g id="c"><use transform="matrix(0.03703703703703704,0,0,0.03703703703703704,0,0)" xlink:href="#au"/><use transform="matrix(0.03703703703703704,0,0,0.03703703703703704,11.074074074074076,0)" xlink:href="#aq"/><use transform="matrix(0.03703703703703704,0,0,0.03703703703703704,18.481481481481485,0)" xlink:href="#av"/><use transform="matrix(0.03703703703703704,0,0,0.03703703703703704,22.185185185185194,0)" xlink:href="#aw"/><use transform="matrix(0.03703703703703704,0,0,0.03703703703703704,29.592592592592602,0)" xlink:href="#an"/><use transform="matrix(0.03703703703703704,0,0,0.03703703703703704,37.00000000000001,0)" xlink:href="#ax"/><use transform="matrix(0.03703703703703704,0,0,0.03703703703703704,48.07407407407408,0)" xlink:href="#aq"/><use transform="matrix(0.03703703703703704,0,0,0.03703703703703704,55.481481481481495,0)" xlink:href="#av"/><use transform="matrix(0.03703703703703704,0,0,0.03703703703703704,59.185185185185205,0)" xlink:href="#ap"/><use transform="matrix(0.03703703703703704,0,0,0.03703703703703704,62.11111111111112,0)" xlink:href="#ao"/><use transform="matrix(0.03703703703703704,0,0,0.03703703703703704,68.77777777777779,0)" xlink:href="#aq"/><use transform="matrix(0.03703703703703704,0,0,0.03703703703703704,76.18518518518519,0)" xlink:href="#as"/><path d="M-.67.92h84.15v.98H-.67z"/></g><path d="M30 0v-248h33v221h125V0H30" id="ay"/><path d="M177-190C167-65 218 103 67 71c-23-6-38-20-44-43l32-5c15 47 100 32 89-28v-30C133-14 115 1 83 1 29 1 15-40 15-95c0-56 16-97 71-98 29-1 48 16 59 35 1-10 0-23 2-32h30zM94-22c36 0 50-32 50-73 0-42-14-75-50-75-39 0-46 34-46 75s6 73 46 73" id="az"/><path d="M84 4C-5 8 30-112 23-190h32v120c0 31 7 50 39 49 72-2 45-101 50-169h31l1 190h-30c-1-10 1-25-2-33-11 22-28 36-60 37" id="aA"/><path d="M135-143c-3-34-86-38-87 0 15 53 115 12 119 90S17 21 10-45l28-5c4 36 97 45 98 0-10-56-113-15-118-90-4-57 82-63 122-42 12 7 21 19 24 35" id="aB"/><g id="d"><use transform="matrix(0.03703703703703704,0,0,0.03703703703703704,0,0)" xlink:href="#ay"/><use transform="matrix(0.03703703703703704,0,0,0.03703703703703704,7.407407407407408,0)" xlink:href="#aq"/><use transform="matrix(0.03703703703703704,0,0,0.03703703703703704,14.814814814814817,0)" xlink:href="#al"/><use transform="matrix(0.03703703703703704,0,0,0.03703703703703704,22.222222222222225,0)" xlink:href="#az"/><use transform="matrix(0.03703703703703704,0,0,0.03703703703703704,29.629629629629633,0)" xlink:href="#aA"/><use transform="matrix(0.03703703703703704,0,0,0.03703703703703704,37.03703703703704,0)" xlink:href="#aq"/><use transform="matrix(0.03703703703703704,0,0,0.03703703703703704,44.44444444444444,0)" xlink:href="#az"/><use transform="matrix(0.03703703703703704,0,0,0.03703703703703704,51.85185185185185,0)" xlink:href="#an"/><use transform="matrix(0.03703703703703704,0,0,0.03703703703703704,59.25925925925925,0)" xlink:href="#aB"/><path d="M-.67.92H66.6v.98H-.68z"/></g><path d="M33 0v-248h34V0H33" id="aC"/><g id="e"><use transform="matrix(0.031481481481481485,0,0,0.031481481481481485,0,0)" xlink:href="#aC"/><use transform="matrix(0.031481481481481485,0,0,0.031481481481481485,3.1481481481481484,0)" xlink:href="#al"/><use transform="matrix(0.031481481481481485,0,0,0.031481481481481485,9.444444444444445,0)" xlink:href="#am"/><use transform="matrix(0.031481481481481485,0,0,0.031481481481481485,15.74074074074074,0)" xlink:href="#ap"/><use transform="matrix(0.031481481481481485,0,0,0.031481481481481485,18.227777777777778,0)" xlink:href="#ao"/><use transform="matrix(0.031481481481481485,0,0,0.031481481481481485,23.894444444444446,0)" xlink:href="#aq"/><use transform="matrix(0.031481481481481485,0,0,0.031481481481481485,30.190740740740743,0)" xlink:href="#av"/><use transform="matrix(0.031481481481481485,0,0,0.031481481481481485,33.33888888888889,0)" xlink:href="#an"/><use transform="matrix(0.031481481481481485,0,0,0.031481481481481485,39.635185185185186,0)" xlink:href="#aB"/></g><g id="f"><use transform="matrix(0.031481481481481485,0,0,0.031481481481481485,0,0)" xlink:href="#av"/><use transform="matrix(0.031481481481481485,0,0,0.031481481481481485,3.1481481481481484,0)" xlink:href="#aw"/><use transform="matrix(0.031481481481481485,0,0,0.031481481481481485,9.444444444444445,0)" xlink:href="#an"/></g><path d="M140-251c81 0 123 46 123 126C263-46 219 4 140 4 59 4 17-45 17-125s42-126 123-126zm0 227c63 0 89-41 89-101s-29-99-89-99c-61 0-89 39-89 99S79-25 140-24" id="aD"/><path d="M266 0h-40l-56-210L115 0H75L2-248h35L96-30l15-64 43-154h32l59 218 59-218h35" id="aE"/><g id="g"><use transform="matrix(0.031481481481481485,0,0,0.031481481481481485,0,0)" xlink:href="#aD"/><use transform="matrix(0.031481481481481485,0,0,0.031481481481481485,8.814814814814817,0)" xlink:href="#aE"/><use transform="matrix(0.031481481481481485,0,0,0.031481481481481485,19.48703703703704,0)" xlink:href="#ay"/></g><path d="M101-251c82-7 93 87 43 132L82-64C71-53 59-42 53-27h129V0H18c2-99 128-94 128-182 0-28-16-43-45-43s-46 15-49 41l-32-3c6-41 34-60 81-64" id="aF"/><use transform="matrix(0.031481481481481485,0,0,0.031481481481481485,0,0)" xlink:href="#aF" id="h"/><g id="i"><use transform="matrix(0.031481481481481485,0,0,0.031481481481481485,0,0)" xlink:href="#at"/><use transform="matrix(0.031481481481481485,0,0,0.031481481481481485,8.153703703703705,0)" xlink:href="#ay"/></g><path d="M115-194c55 1 70 41 70 98S169 2 115 4C84 4 66-9 55-30l1 105H24l-1-265h31l2 30c10-21 28-34 59-34zm-8 174c40 0 45-34 45-75s-6-73-45-74c-42 0-51 32-51 76 0 43 10 73 51 73" id="aG"/><path d="M114-163C36-179 61-72 57 0H25l-1-190h30c1 12-1 29 2 39 6-27 23-49 58-41v29" id="aH"/><path d="M100-194c62-1 85 37 85 99 1 63-27 99-86 99S16-35 15-95c0-66 28-99 85-99zM99-20c44 1 53-31 53-75 0-43-8-75-51-75s-53 32-53 75 10 74 51 75" id="aI"/><path d="M101-234c-31-9-42 10-38 44h38v23H63V0H32v-167H5v-23h27c-7-52 17-82 69-68v24" id="aJ"/><g id="j"><use transform="matrix(0.031481481481481485,0,0,0.031481481481481485,0,0)" xlink:href="#aG"/><use transform="matrix(0.031481481481481485,0,0,0.031481481481481485,6.296296296296297,0)" xlink:href="#aH"/><use transform="matrix(0.031481481481481485,0,0,0.031481481481481485,10.042592592592595,0)" xlink:href="#aI"/><use transform="matrix(0.031481481481481485,0,0,0.031481481481481485,16.338888888888892,0)" xlink:href="#aJ"/><use transform="matrix(0.031481481481481485,0,0,0.031481481481481485,19.48703703703704,0)" xlink:href="#ap"/><use transform="matrix(0.031481481481481485,0,0,0.031481481481481485,21.97407407407408,0)" xlink:href="#as"/><use transform="matrix(0.031481481481481485,0,0,0.031481481481481485,24.461111111111116,0)" xlink:href="#an"/></g><g id="k"><use transform="matrix(0.031481481481481485,0,0,0.031481481481481485,0,0)" xlink:href="#ap"/><use transform="matrix(0.031481481481481485,0,0,0.031481481481481485,2.4870370370370374,0)" xlink:href="#aB"/></g><g id="l"><use transform="matrix(0.031481481481481485,0,0,0.031481481481481485,0,0)" xlink:href="#ar"/><use transform="matrix(0.031481481481481485,0,0,0.031481481481481485,6.296296296296297,0)" xlink:href="#aq"/><use transform="matrix(0.031481481481481485,0,0,0.031481481481481485,12.592592592592593,0)" xlink:href="#aB"/><use transform="matrix(0.031481481481481485,0,0,0.031481481481481485,18.25925925925926,0)" xlink:href="#an"/><use transform="matrix(0.031481481481481485,0,0,0.031481481481481485,24.555555555555557,0)" xlink:href="#am"/></g><g id="m"><use transform="matrix(0.031481481481481485,0,0,0.031481481481481485,0,0)" xlink:href="#aI"/><use transform="matrix(0.031481481481481485,0,0,0.031481481481481485,6.296296296296297,0)" xlink:href="#al"/></g><g id="n"><use transform="matrix(0.031481481481481485,0,0,0.031481481481481485,0,0)" xlink:href="#av"/><use transform="matrix(0.031481481481481485,0,0,0.031481481481481485,3.1481481481481484,0)" xlink:href="#aw"/><use transform="matrix(0.031481481481481485,0,0,0.031481481481481485,9.444444444444445,0)" xlink:href="#an"/></g><path d="M185-189c-5-48-123-54-124 2 14 75 158 14 163 119 3 78-121 87-175 55-17-10-28-26-33-46l33-7c5 56 141 63 141-1 0-78-155-14-162-118-5-82 145-84 179-34 5 7 8 16 11 25" id="aK"/><path d="M233-177c-1 41-23 64-60 70L243 0h-38l-65-103H63V0H30v-248c88 3 205-21 203 71zM63-129c60-2 137 13 137-47 0-61-80-42-137-45v92" id="aL"/><path d="M140-251c81 0 123 46 123 126C263-53 228-8 163 1c7 30 30 48 69 40v23c-55 16-95-15-103-61C56-3 17-48 17-125c0-80 42-126 123-126zm0 227c63 0 89-41 89-101s-29-99-89-99c-61 0-89 39-89 99S79-25 140-24" id="aM"/><g id="o"><use transform="matrix(0.031481481481481485,0,0,0.031481481481481485,0,0)" xlink:href="#aK"/><use transform="matrix(0.031481481481481485,0,0,0.031481481481481485,7.555555555555556,0)" xlink:href="#aL"/><use transform="matrix(0.031481481481481485,0,0,0.031481481481481485,15.709259259259262,0)" xlink:href="#aD"/><use transform="matrix(0.031481481481481485,0,0,0.031481481481481485,24.52407407407408,0)" xlink:href="#aC"/><use transform="matrix(0.031481481481481485,0,0,0.031481481481481485,27.672222222222228,0)" xlink:href="#aM"/></g><g id="p"><use transform="matrix(0.031481481481481485,0,0,0.031481481481481485,0,0)" xlink:href="#at"/><use transform="matrix(0.031481481481481485,0,0,0.031481481481481485,8.153703703703705,0)" xlink:href="#an"/><use transform="matrix(0.031481481481481485,0,0,0.031481481481481485,14.450000000000003,0)" xlink:href="#aB"/><use transform="matrix(0.031481481481481485,0,0,0.031481481481481485,20.11666666666667,0)" xlink:href="#ao"/><use transform="matrix(0.031481481481481485,0,0,0.031481481481481485,25.78333333333334,0)" xlink:href="#aH"/><use transform="matrix(0.031481481481481485,0,0,0.031481481481481485,29.529629629629635,0)" xlink:href="#ap"/><use transform="matrix(0.031481481481481485,0,0,0.031481481481481485,32.01666666666667,0)" xlink:href="#aG"/><use transform="matrix(0.031481481481481485,0,0,0.031481481481481485,38.31296296296297,0)" xlink:href="#av"/><use transform="matrix(0.031481481481481485,0,0,0.031481481481481485,41.461111111111116,0)" xlink:href="#ap"/><use transform="matrix(0.031481481481481485,0,0,0.031481481481481485,43.94814814814815,0)" xlink:href="#aI"/><use transform="matrix(0.031481481481481485,0,0,0.031481481481481485,50.24444444444445,0)" xlink:href="#al"/></g><g id="q"><use transform="matrix(0.031481481481481485,0,0,0.031481481481481485,0,0)" xlink:href="#ay"/><use transform="matrix(0.031481481481481485,0,0,0.031481481481481485,6.296296296296297,0)" xlink:href="#aI"/><use transform="matrix(0.031481481481481485,0,0,0.031481481481481485,12.592592592592593,0)" xlink:href="#az"/><use transform="matrix(0.031481481481481485,0,0,0.031481481481481485,18.88888888888889,0)" xlink:href="#ap"/><use transform="matrix(0.031481481481481485,0,0,0.031481481481481485,21.375925925925927,0)" xlink:href="#ao"/></g><path d="M197 0v-115H63V0H30v-248h33v105h134v-105h34V0h-34" id="aN"/><g id="r"><use transform="matrix(0.05,0,0,0.05,0,0)" xlink:href="#aN"/><use transform="matrix(0.05,0,0,0.05,12.950000000000001,0)" xlink:href="#ap"/><use transform="matrix(0.05,0,0,0.05,16.900000000000002,0)" xlink:href="#az"/><use transform="matrix(0.05,0,0,0.05,26.900000000000002,0)" xlink:href="#aw"/></g><path d="M206 0h-36l-40-164L89 0H53L-1-190h32L70-26l43-164h34l41 164 42-164h31" id="aO"/><g id="s"><use transform="matrix(0.05,0,0,0.05,0,0)" xlink:href="#ay"/><use transform="matrix(0.05,0,0,0.05,10,0)" xlink:href="#aI"/><use transform="matrix(0.05,0,0,0.05,20,0)" xlink:href="#aO"/></g><path d="M30 0v-248h187v28H63v79h144v27H63v87h162V0H30" id="aP"/><path d="M141 0L90-78 38 0H4l68-98-65-92h35l48 74 47-74h35l-64 92 68 98h-35" id="aQ"/><path d="M108 0H70L1-190h34L89-25l56-165h34" id="aR"/><g id="t"><use transform="matrix(0.05,0,0,0.05,0,0)" xlink:href="#aP"/><use transform="matrix(0.05,0,0,0.05,12,0)" xlink:href="#aQ"/><use transform="matrix(0.05,0,0,0.05,21,0)" xlink:href="#aG"/><use transform="matrix(0.05,0,0,0.05,31,0)" xlink:href="#aH"/><use transform="matrix(0.05,0,0,0.05,36.95,0)" xlink:href="#an"/><use transform="matrix(0.05,0,0,0.05,46.95,0)" xlink:href="#aB"/><use transform="matrix(0.05,0,0,0.05,55.95,0)" xlink:href="#aB"/><use transform="matrix(0.05,0,0,0.05,64.95,0)" xlink:href="#ap"/><use transform="matrix(0.05,0,0,0.05,68.9,0)" xlink:href="#aR"/><use transform="matrix(0.05,0,0,0.05,77.9,0)" xlink:href="#an"/><use transform="matrix(0.05,0,0,0.05,87.9,0)" xlink:href="#al"/><use transform="matrix(0.05,0,0,0.05,97.9,0)" xlink:href="#an"/><use transform="matrix(0.05,0,0,0.05,107.9,0)" xlink:href="#aB"/><use transform="matrix(0.05,0,0,0.05,116.9,0)" xlink:href="#aB"/><path d="M-.9 1.25h127.7v1.32H-.9z"/></g><g id="u"><use transform="matrix(0.03703703703703704,0,0,0.03703703703703704,0,0)" xlink:href="#aD"/><use transform="matrix(0.03703703703703704,0,0,0.03703703703703704,10.370370370370372,0)" xlink:href="#aE"/><use transform="matrix(0.03703703703703704,0,0,0.03703703703703704,22.925925925925927,0)" xlink:href="#ay"/><path d="M-.67.92h34.9v.98H-.68z"/></g><g id="v"><use transform="matrix(0.043827160493827164,0,0,0.043827160493827164,0,0)" xlink:href="#aD"/><use transform="matrix(0.043827160493827164,0,0,0.043827160493827164,12.271604938271606,0)" xlink:href="#aE"/><use transform="matrix(0.043827160493827164,0,0,0.043827160493827164,27.129012345679016,0)" xlink:href="#ay"/></g><use transform="matrix(0.043827160493827164,0,0,0.043827160493827164,0,0)" xlink:href="#aF" id="w"/><g id="x"><use transform="matrix(0.043827160493827164,0,0,0.043827160493827164,0,0)" xlink:href="#at"/><use transform="matrix(0.043827160493827164,0,0,0.043827160493827164,11.351234567901235,0)" xlink:href="#ay"/></g><path d="M27 0v-27h64v-190l-56 39v-29l58-41h29v221h61V0H27" id="aS"/><use transform="matrix(0.043827160493827164,0,0,0.043827160493827164,0,0)" xlink:href="#aS" id="y"/><g id="z"><use transform="matrix(0.043827160493827164,0,0,0.043827160493827164,0,0)" xlink:href="#aP"/><use transform="matrix(0.043827160493827164,0,0,0.043827160493827164,10.518518518518519,0)" xlink:href="#ay"/></g><g id="A"><use transform="matrix(0.043827160493827164,0,0,0.043827160493827164,0,0)" xlink:href="#aM"/><use transform="matrix(0.043827160493827164,0,0,0.043827160493827164,12.271604938271606,0)" xlink:href="#ay"/></g><g id="B"><use transform="matrix(0.043827160493827164,0,0,0.043827160493827164,0,0)" xlink:href="#aL"/><use transform="matrix(0.043827160493827164,0,0,0.043827160493827164,11.351234567901235,0)" xlink:href="#ay"/></g><g id="C"><use transform="matrix(0.043827160493827164,0,0,0.043827160493827164,0,0)" xlink:href="#at"/><use transform="matrix(0.043827160493827164,0,0,0.043827160493827164,11.351234567901235,0)" xlink:href="#an"/><use transform="matrix(0.043827160493827164,0,0,0.043827160493827164,20.116666666666667,0)" xlink:href="#aB"/><use transform="matrix(0.043827160493827164,0,0,0.043827160493827164,28.005555555555556,0)" xlink:href="#ao"/><use transform="matrix(0.043827160493827164,0,0,0.043827160493827164,35.894444444444446,0)" xlink:href="#aH"/><use transform="matrix(0.043827160493827164,0,0,0.043827160493827164,41.10987654320988,0)" xlink:href="#ap"/><use transform="matrix(0.043827160493827164,0,0,0.043827160493827164,44.57222222222222,0)" xlink:href="#aG"/><use transform="matrix(0.043827160493827164,0,0,0.043827160493827164,53.337654320987646,0)" xlink:href="#av"/><use transform="matrix(0.043827160493827164,0,0,0.043827160493827164,57.72037037037036,0)" xlink:href="#ap"/><use transform="matrix(0.043827160493827164,0,0,0.043827160493827164,61.18271604938271,0)" xlink:href="#aI"/><use transform="matrix(0.043827160493827164,0,0,0.043827160493827164,69.94814814814815,0)" xlink:href="#al"/></g><g id="D"><use transform="matrix(0.043827160493827164,0,0,0.043827160493827164,0,0)" xlink:href="#ay"/><use transform="matrix(0.043827160493827164,0,0,0.043827160493827164,8.765432098765432,0)" xlink:href="#aI"/><use transform="matrix(0.043827160493827164,0,0,0.043827160493827164,17.530864197530864,0)" xlink:href="#az"/><use transform="matrix(0.043827160493827164,0,0,0.043827160493827164,26.296296296296298,0)" xlink:href="#ap"/><use transform="matrix(0.043827160493827164,0,0,0.043827160493827164,29.758641975308645,0)" xlink:href="#ao"/><use transform="matrix(0.043827160493827164,0,0,0.043827160493827164,37.647530864197535,0)" xlink:href="#aB"/></g><path d="M30-248c87 1 191-15 191 75 0 78-77 80-158 76V0H30v-248zm33 125c57 0 124 11 124-50 0-59-68-47-124-48v98" id="aT"/><g id="E"><use transform="matrix(0.043827160493827164,0,0,0.043827160493827164,0,0)" xlink:href="#aT"/><use transform="matrix(0.043827160493827164,0,0,0.043827160493827164,10.518518518518519,0)" xlink:href="#aH"/><use transform="matrix(0.043827160493827164,0,0,0.043827160493827164,15.733950617283952,0)" xlink:href="#aI"/><use transform="matrix(0.043827160493827164,0,0,0.043827160493827164,24.499382716049386,0)" xlink:href="#aG"/><use transform="matrix(0.043827160493827164,0,0,0.043827160493827164,33.26481481481481,0)" xlink:href="#aI"/><use transform="matrix(0.043827160493827164,0,0,0.043827160493827164,42.03024691358024,0)" xlink:href="#aB"/><use transform="matrix(0.043827160493827164,0,0,0.043827160493827164,49.91913580246913,0)" xlink:href="#ap"/><use transform="matrix(0.043827160493827164,0,0,0.043827160493827164,53.38148148148147,0)" xlink:href="#av"/><use transform="matrix(0.043827160493827164,0,0,0.043827160493827164,57.764197530864195,0)" xlink:href="#ap"/><use transform="matrix(0.043827160493827164,0,0,0.043827160493827164,61.226543209876525,0)" xlink:href="#aI"/><use transform="matrix(0.043827160493827164,0,0,0.043827160493827164,69.99197530864197,0)" xlink:href="#al"/><use transform="matrix(0.043827160493827164,0,0,0.043827160493827164,78.7574074074074,0)" xlink:href="#aq"/><use transform="matrix(0.043827160493827164,0,0,0.043827160493827164,87.52283950617283,0)" xlink:href="#as"/></g><g id="F"><use transform="matrix(0.043827160493827164,0,0,0.043827160493827164,0,0)" xlink:href="#ay"/><use transform="matrix(0.043827160493827164,0,0,0.043827160493827164,8.765432098765432,0)" xlink:href="#aI"/><use transform="matrix(0.043827160493827164,0,0,0.043827160493827164,17.530864197530864,0)" xlink:href="#az"/><use transform="matrix(0.043827160493827164,0,0,0.043827160493827164,26.296296296296298,0)" xlink:href="#ap"/><use transform="matrix(0.043827160493827164,0,0,0.043827160493827164,29.758641975308645,0)" xlink:href="#ao"/></g><path d="M63-220v92h138v28H63V0H30v-248h175v28H63" id="aU"/><g id="G"><use transform="matrix(0.04320987654320988,0,0,0.04320987654320988,0,0)" xlink:href="#aU"/><use transform="matrix(0.04320987654320988,0,0,0.04320987654320988,9.462962962962964,0)" xlink:href="#ap"/><use transform="matrix(0.04320987654320988,0,0,0.04320987654320988,12.876543209876544,0)" xlink:href="#aH"/><use transform="matrix(0.04320987654320988,0,0,0.04320987654320988,18.01851851851852,0)" xlink:href="#aB"/><use transform="matrix(0.04320987654320988,0,0,0.04320987654320988,25.796296296296298,0)" xlink:href="#av"/></g><g id="H"><use transform="matrix(0.04320987654320988,0,0,0.04320987654320988,0,0)" xlink:href="#aD"/><use transform="matrix(0.04320987654320988,0,0,0.04320987654320988,12.098765432098766,0)" xlink:href="#aH"/><use transform="matrix(0.04320987654320988,0,0,0.04320987654320988,17.24074074074074,0)" xlink:href="#am"/><use transform="matrix(0.04320987654320988,0,0,0.04320987654320988,25.882716049382715,0)" xlink:href="#an"/><use transform="matrix(0.04320987654320988,0,0,0.04320987654320988,34.52469135802469,0)" xlink:href="#aH"/></g><g id="I"><use transform="matrix(0.04320987654320988,0,0,0.04320987654320988,0,0)" xlink:href="#ay"/><use transform="matrix(0.04320987654320988,0,0,0.04320987654320988,8.641975308641976,0)" xlink:href="#aI"/><use transform="matrix(0.04320987654320988,0,0,0.04320987654320988,17.283950617283953,0)" xlink:href="#az"/><use transform="matrix(0.04320987654320988,0,0,0.04320987654320988,25.925925925925927,0)" xlink:href="#ap"/><use transform="matrix(0.04320987654320988,0,0,0.04320987654320988,29.339506172839513,0)" xlink:href="#ao"/></g><g id="J"><use transform="matrix(0.043827160493827164,0,0,0.043827160493827164,0,0)" xlink:href="#aU"/><use transform="matrix(0.043827160493827164,0,0,0.043827160493827164,9.598148148148148,0)" xlink:href="#ak"/><use transform="matrix(0.043827160493827164,0,0,0.043827160493827164,20.949382716049385,0)" xlink:href="#ay"/><use transform="matrix(0.043827160493827164,0,0,0.043827160493827164,29.714814814814815,0)" xlink:href="#ay"/></g><g id="K"><use transform="matrix(0.05,0,0,0.05,0,0)" xlink:href="#aD"/><use transform="matrix(0.05,0,0,0.05,14,0)" xlink:href="#aE"/><use transform="matrix(0.05,0,0,0.05,30.950000000000003,0)" xlink:href="#ay"/></g><use transform="matrix(0.05,0,0,0.05,0,0)" xlink:href="#aF" id="L"/><g id="M"><use transform="matrix(0.05,0,0,0.05,0,0)" xlink:href="#at"/><use transform="matrix(0.05,0,0,0.05,12.950000000000001,0)" xlink:href="#ay"/></g><g id="N"><use transform="matrix(0.02530864197530864,0,0,0.02530864197530864,0,0)" xlink:href="#aC"/><use transform="matrix(0.02530864197530864,0,0,0.02530864197530864,2.530864197530864,0)" xlink:href="#aB"/></g><use transform="matrix(0.02530864197530864,0,0,0.02530864197530864,0,0)" xlink:href="#aq" id="O"/><g id="P"><use transform="matrix(0.02530864197530864,0,0,0.02530864197530864,0,0)" xlink:href="#aK"/><use transform="matrix(0.02530864197530864,0,0,0.02530864197530864,6.0740740740740735,0)" xlink:href="#aA"/><use transform="matrix(0.02530864197530864,0,0,0.02530864197530864,11.1358024691358,0)" xlink:href="#aG"/><use transform="matrix(0.02530864197530864,0,0,0.02530864197530864,16.197530864197528,0)" xlink:href="#an"/><use transform="matrix(0.02530864197530864,0,0,0.02530864197530864,21.259259259259256,0)" xlink:href="#aH"/></g><g id="Q"><use transform="matrix(0.02530864197530864,0,0,0.02530864197530864,0,0)" xlink:href="#aK"/><use transform="matrix(0.02530864197530864,0,0,0.02530864197530864,6.0740740740740735,0)" xlink:href="#an"/><use transform="matrix(0.02530864197530864,0,0,0.02530864197530864,11.1358024691358,0)" xlink:href="#av"/></g><g id="R"><use transform="matrix(0.02530864197530864,0,0,0.02530864197530864,0,0)" xlink:href="#aI"/><use transform="matrix(0.02530864197530864,0,0,0.02530864197530864,5.061728395061728,0)" xlink:href="#aJ"/></g><g id="S"><use transform="matrix(0.05,0,0,0.05,0,0)" xlink:href="#aD"/><use transform="matrix(0.05,0,0,0.05,14,0)" xlink:href="#al"/><use transform="matrix(0.05,0,0,0.05,24,0)" xlink:href="#av"/><use transform="matrix(0.05,0,0,0.05,29,0)" xlink:href="#aI"/><use transform="matrix(0.05,0,0,0.05,39,0)" xlink:href="#as"/><use transform="matrix(0.05,0,0,0.05,42.95,0)" xlink:href="#aI"/><use transform="matrix(0.05,0,0,0.05,52.95,0)" xlink:href="#az"/><use transform="matrix(0.05,0,0,0.05,62.95,0)" xlink:href="#ap"/><use transform="matrix(0.05,0,0,0.05,66.9,0)" xlink:href="#ao"/><use transform="matrix(0.05,0,0,0.05,75.9,0)" xlink:href="#aq"/><use transform="matrix(0.05,0,0,0.05,85.9,0)" xlink:href="#as"/><path d="M-.9 1.25h96.65v1.32H-.9z"/></g><g id="T"><use transform="matrix(0.05,0,0,0.05,0,0)" xlink:href="#ay"/><use transform="matrix(0.05,0,0,0.05,10,0)" xlink:href="#aq"/><use transform="matrix(0.05,0,0,0.05,20,0)" xlink:href="#al"/><use transform="matrix(0.05,0,0,0.05,30,0)" xlink:href="#az"/><use transform="matrix(0.05,0,0,0.05,40,0)" xlink:href="#aA"/><use transform="matrix(0.05,0,0,0.05,50,0)" xlink:href="#aq"/><use transform="matrix(0.05,0,0,0.05,60,0)" xlink:href="#az"/><use transform="matrix(0.05,0,0,0.05,70,0)" xlink:href="#an"/><use transform="matrix(0.05,0,0,0.05,80,0)" xlink:href="#aB"/><path d="M-.9 1.25h90.8v1.32H-.9z"/></g><g id="U"><use transform="matrix(0.02530864197530864,0,0,0.02530864197530864,0,0)" xlink:href="#aK"/><use transform="matrix(0.02530864197530864,0,0,0.02530864197530864,6.0740740740740735,0)" xlink:href="#an"/><use transform="matrix(0.02530864197530864,0,0,0.02530864197530864,11.1358024691358,0)" xlink:href="#aG"/></g><path d="M64 0c3-98 48-159 88-221H18v-27h164v26C143-157 98-101 97 0H64" id="aV"/><path d="M68-38c1 34 0 65-14 84H32c9-13 17-26 17-46H33v-38h35" id="aW"/><g id="V"><use transform="matrix(0.02530864197530864,0,0,0.02530864197530864,0,0)" xlink:href="#aS"/><use transform="matrix(0.02530864197530864,0,0,0.02530864197530864,5.061728395061728,0)" xlink:href="#aV"/><use transform="matrix(0.02530864197530864,0,0,0.02530864197530864,10.123456790123456,0)" xlink:href="#aW"/></g><path d="M101-251c68 0 85 55 85 127S166 4 100 4C33 4 14-52 14-124c0-73 17-127 87-127zm-1 229c47 0 54-49 54-102s-4-102-53-102c-51 0-55 48-55 102 0 53 5 102 54 102" id="aX"/><g id="W"><use transform="matrix(0.02530864197530864,0,0,0.02530864197530864,0,0)" xlink:href="#aF"/><use transform="matrix(0.02530864197530864,0,0,0.02530864197530864,5.061728395061728,0)" xlink:href="#aX"/><use transform="matrix(0.02530864197530864,0,0,0.02530864197530864,10.123456790123456,0)" xlink:href="#aF"/><use transform="matrix(0.02530864197530864,0,0,0.02530864197530864,15.185185185185183,0)" xlink:href="#aX"/></g><path d="M212-179c-10-28-35-45-73-45-59 0-87 40-87 99 0 60 29 101 89 101 43 0 62-24 78-52l27 14C228-24 195 4 139 4 59 4 22-46 18-125c-6-104 99-153 187-111 19 9 31 26 39 46" id="aY"/><g id="X"><use transform="matrix(0.024691358024691353,0,0,0.024691358024691353,0,0)" xlink:href="#aY"/><use transform="matrix(0.024691358024691353,0,0,0.024691358024691353,6.395061728395061,0)" xlink:href="#aH"/><use transform="matrix(0.024691358024691353,0,0,0.024691358024691353,9.333333333333332,0)" xlink:href="#an"/><use transform="matrix(0.024691358024691353,0,0,0.024691358024691353,14.271604938271603,0)" xlink:href="#aq"/><use transform="matrix(0.024691358024691353,0,0,0.024691358024691353,19.209876543209873,0)" xlink:href="#av"/><use transform="matrix(0.024691358024691353,0,0,0.024691358024691353,21.67901234567901,0)" xlink:href="#an"/><use transform="matrix(0.024691358024691353,0,0,0.024691358024691353,26.617283950617278,0)" xlink:href="#am"/></g><path d="M160-131c35 5 61 23 61 61C221 17 115-2 30 0v-248c76 3 177-17 177 60 0 33-19 50-47 57zm-97-11c50-1 110 9 110-42 0-47-63-36-110-37v79zm0 115c55-2 124 14 124-45 0-56-70-42-124-44v89" id="aZ"/><path d="M179-190L93 31C79 59 56 82 12 73V49c39 6 53-20 64-50L1-190h34L92-34l54-156h33" id="ba"/><g id="Y"><use transform="matrix(0.024691358024691353,0,0,0.024691358024691353,0,0)" xlink:href="#aZ"/><use transform="matrix(0.024691358024691353,0,0,0.024691358024691353,5.925925925925925,0)" xlink:href="#ba"/></g><g id="Z"><use transform="matrix(0.024691358024691353,0,0,0.024691358024691353,0,0)" xlink:href="#au"/><use transform="matrix(0.024691358024691353,0,0,0.024691358024691353,7.382716049382714,0)" xlink:href="#aq"/><use transform="matrix(0.024691358024691353,0,0,0.024691358024691353,12.320987654320984,0)" xlink:href="#aH"/><use transform="matrix(0.024691358024691353,0,0,0.024691358024691353,15.259259259259254,0)" xlink:href="#ao"/><use transform="matrix(0.024691358024691353,0,0,0.024691358024691353,19.7037037037037,0)" xlink:href="#aA"/><use transform="matrix(0.024691358024691353,0,0,0.024691358024691353,24.641975308641968,0)" xlink:href="#aB"/></g><g id="aa"><use transform="matrix(0.024691358024691353,0,0,0.024691358024691353,0,0)" xlink:href="#aN"/><use transform="matrix(0.024691358024691353,0,0,0.024691358024691353,6.395061728395061,0)" xlink:href="#aq"/><use transform="matrix(0.024691358024691353,0,0,0.024691358024691353,11.333333333333332,0)" xlink:href="#al"/><use transform="matrix(0.024691358024691353,0,0,0.024691358024691353,16.2716049382716,0)" xlink:href="#am"/><use transform="matrix(0.024691358024691353,0,0,0.024691358024691353,21.209876543209873,0)" xlink:href="#as"/><use transform="matrix(0.024691358024691353,0,0,0.024691358024691353,23.16049382716049,0)" xlink:href="#an"/><use transform="matrix(0.024691358024691353,0,0,0.024691358024691353,28.09876543209876,0)" xlink:href="#ba"/></g><g id="ab"><use transform="matrix(0.024691358024691353,0,0,0.024691358024691353,0,0)" xlink:href="#ap"/><use transform="matrix(0.024691358024691353,0,0,0.024691358024691353,1.9506172839506168,0)" xlink:href="#al"/></g><g id="ac"><use transform="matrix(0.024691358024691353,0,0,0.024691358024691353,0,0)" xlink:href="#av"/><use transform="matrix(0.024691358024691353,0,0,0.024691358024691353,2.469135802469135,0)" xlink:href="#aw"/><use transform="matrix(0.024691358024691353,0,0,0.024691358024691353,7.407407407407406,0)" xlink:href="#an"/></g><path d="M205 0l-28-72H64L36 0H1l101-248h38L239 0h-34zm-38-99l-47-123c-12 45-31 82-46 123h93" id="bb"/><g id="ad"><use transform="matrix(0.024691358024691353,0,0,0.024691358024691353,0,0)" xlink:href="#ak"/><use transform="matrix(0.024691358024691353,0,0,0.024691358024691353,6.395061728395061,0)" xlink:href="#aE"/><use transform="matrix(0.024691358024691353,0,0,0.024691358024691353,14.444444444444441,0)" xlink:href="#bb"/></g><g id="ae"><use transform="matrix(0.024691358024691353,0,0,0.024691358024691353,0,0)" xlink:href="#aK"/><use transform="matrix(0.024691358024691353,0,0,0.024691358024691353,5.925925925925925,0)" xlink:href="#aN"/><use transform="matrix(0.024691358024691353,0,0,0.024691358024691353,12.320987654320986,0)" xlink:href="#ay"/></g><path d="M33-154v-36h34v36H33zM33 0v-36h34V0H33" id="bc"/><g id="af"><use transform="matrix(0.018518518518518514,0,0,0.018518518518518514,0,0)" xlink:href="#bb"/><use transform="matrix(0.018518518518518514,0,0,0.018518518518518514,4.444444444444444,0)" xlink:href="#aA"/><use transform="matrix(0.018518518518518514,0,0,0.018518518518518514,8.148148148148147,0)" xlink:href="#av"/><use transform="matrix(0.018518518518518514,0,0,0.018518518518518514,9.999999999999998,0)" xlink:href="#aw"/><use transform="matrix(0.018518518518518514,0,0,0.018518518518518514,13.7037037037037,0)" xlink:href="#aI"/><use transform="matrix(0.018518518518518514,0,0,0.018518518518518514,17.407407407407405,0)" xlink:href="#aH"/><use transform="matrix(0.018518518518518514,0,0,0.018518518518518514,19.611111111111107,0)" xlink:href="#bc"/></g><g id="ag"><use transform="matrix(0.018518518518518514,0,0,0.018518518518518514,0,0)" xlink:href="#au"/><use transform="matrix(0.018518518518518514,0,0,0.018518518518518514,5.537037037037035,0)" xlink:href="#aq"/><use transform="matrix(0.018518518518518514,0,0,0.018518518518518514,9.240740740740739,0)" xlink:href="#aH"/><use transform="matrix(0.018518518518518514,0,0,0.018518518518518514,11.444444444444445,0)" xlink:href="#ao"/><use transform="matrix(0.018518518518518514,0,0,0.018518518518518514,14.777777777777775,0)" xlink:href="#aA"/><use transform="matrix(0.018518518518518514,0,0,0.018518518518518514,18.481481481481477,0)" xlink:href="#aB"/></g><g id="ah"><use transform="matrix(0.018518518518518514,0,0,0.018518518518518514,0,0)" xlink:href="#aN"/><use transform="matrix(0.018518518518518514,0,0,0.018518518518518514,4.796296296296295,0)" xlink:href="#aq"/><use transform="matrix(0.018518518518518514,0,0,0.018518518518518514,8.499999999999998,0)" xlink:href="#al"/><use transform="matrix(0.018518518518518514,0,0,0.018518518518518514,12.2037037037037,0)" xlink:href="#am"/><use transform="matrix(0.018518518518518514,0,0,0.018518518518518514,15.907407407407403,0)" xlink:href="#as"/><use transform="matrix(0.018518518518518514,0,0,0.018518518518518514,17.370370370370367,0)" xlink:href="#an"/><use transform="matrix(0.018518518518518514,0,0,0.018518518518518514,21.07407407407407,0)" xlink:href="#ba"/></g><path fill-opacity=".2" d="M240 0l2-218c-23 76-54 145-80 218h-23L58-218 59 0H30v-248h44l77 211c21-75 51-140 76-211h43V0h-30" id="bd"/><path fill-opacity=".2" d="M266 0h-40l-56-210L115 0H75L2-248h35L96-30l15-64 43-154h32l59 218 59-218h35" id="be"/><path fill-opacity=".2" d="M197 0v-115H63V0H30v-248h33v105h134v-105h34V0h-34" id="bf"/><g id="ai"><use transform="matrix(0.02469135802469136,0,0,0.02469135802469136,0,0)" xlink:href="#bd"/><use transform="matrix(0.02469135802469136,0,0,0.02469135802469136,7.382716049382717,0)" xlink:href="#be"/><use transform="matrix(0.02469135802469136,0,0,0.02469135802469136,15.753086419753087,0)" xlink:href="#bf"/></g><path fill-opacity=".2" d="M185-189c-5-48-123-54-124 2 14 75 158 14 163 119 3 78-121 87-175 55-17-10-28-26-33-46l33-7c5 56 141 63 141-1 0-78-155-14-162-118-5-82 145-84 179-34 5 7 8 16 11 25" id="bg"/><path fill-opacity=".2" d="M30 0v-248h33v221h125V0H30" id="bh"/><g id="aj"><use transform="matrix(0.02469135802469136,0,0,0.02469135802469136,0,0)" xlink:href="#bg"/><use transform="matrix(0.02469135802469136,0,0,0.02469135802469136,5.9259259259259265,0)" xlink:href="#bf"/><use transform="matrix(0.02469135802469136,0,0,0.02469135802469136,12.320987654320989,0)" xlink:href="#bh"/></g></defs></g></svg>