<svg xmlns="http://www.w3.org/2000/svg" xmlns:xlink="http://www.w3.org/1999/xlink" xmlns:lucid="lucid" width="606.35" height="406.36"><g transform="translate(20 20)" lucid:page-tab-id="0_0"><path d="M0 0h598.43v377.95H0z" fill="#fff"/><g fill="none"><path d="M499.7 223.76v20.2H374.75v-20.2z"/><path d="M374.75 223.76c0 4.32 3.5 7.8 7.8 7.8h46.87c4.3 0 7.8 3.5 7.8 7.82 0-4.3 3.5-7.8 7.82-7.8h46.85c4.3 0 7.8-3.5 7.8-7.82" stroke="#000"/></g><use xlink:href="#a" transform="matrix(1,-2.4492935982947064e-16,2.4492935982947064e-16,1,374.75468107452747,240.57537942166923) translate(17.840123456790124 12.622222222222224)"/><use xlink:href="#b" transform="matrix(1,-2.4492935982947064e-16,2.4492935982947064e-16,1,374.75468107452747,240.57537942166923) translate(30.988271604938273 12.622222222222224)"/><path d="M0 0h566.35v30H0z" fill="none"/><use xlink:href="#c" transform="matrix(1,0,0,1,5,5) translate(172.6 14.4)"/><use xlink:href="#d" transform="matrix(1,0,0,1,5,5) translate(262.5 14.4)"/><use xlink:href="#e" transform="matrix(1,0,0,1,5,5) translate(297.5 14.4)"/><path d="M398.6 10h72.04v20H398.6z" fill="none"/><use xlink:href="#f" transform="matrix(1,0,0,1,403.5909583553847,15) translate(4.419753086419757 7.288888888888889)"/><use xlink:href="#g" transform="matrix(1,0,0,1,403.5909583553847,15) translate(23.14814814814815 7.288888888888889)"/><use xlink:href="#h" transform="matrix(1,0,0,1,403.5909583553847,15) translate(38.33333333333333 7.288888888888889)"/><path d="M156.3 30h253.74v20H156.3z" fill="none"/><use xlink:href="#i" transform="matrix(1,0,0,1,161.31300770205843,35) translate(3.3209876543210157 7.111111111111111)"/><use xlink:href="#j" transform="matrix(1,0,0,1,161.31300770205843,35) translate(37.3456790123457 7.111111111111111)"/><use xlink:href="#k" transform="matrix(1,0,0,1,161.31300770205843,35) translate(50.185185185185205 7.111111111111111)"/><use xlink:href="#l" transform="matrix(1,0,0,1,161.31300770205843,35) translate(81.74074074074075 7.111111111111111)"/><use xlink:href="#m" transform="matrix(1,0,0,1,161.31300770205843,35) translate(116.75308641975309 7.111111111111111)"/><use xlink:href="#n" transform="matrix(1,0,0,1,161.31300770205843,35) translate(134.03703703703704 7.111111111111111)"/><use xlink:href="#o" transform="matrix(1,0,0,1,161.31300770205843,35) translate(158.16049382716048 7.111111111111111)"/><use xlink:href="#p" transform="matrix(1,0,0,1,161.31300770205843,35) translate(176.9012345679012 7.111111111111111)"/><use xlink:href="#q" transform="matrix(1,0,0,1,161.31300770205843,35) translate(186.25925925925924 7.111111111111111)"/><use xlink:href="#r" transform="matrix(1,0,0,1,161.31300770205843,35) translate(201.07407407407405 7.111111111111111)"/><use xlink:href="#s" transform="matrix(1,0,0,1,161.31300770205843,35) translate(223.41975308641972 7.111111111111111)"/><path d="M60 328.98h75.2v26H60z" fill="none"/><use xlink:href="#t" transform="matrix(1,0,0,1,65,333.9767214642319) translate(5.555555555555554 10.277777777777779)"/><use xlink:href="#u" transform="matrix(1,0,0,1,65,333.9767214642319) translate(30.17283950617284 10.277777777777779)"/><use xlink:href="#v" transform="matrix(1,0,0,1,65,333.9767214642319) translate(43.18518518518519 10.277777777777779)"/><path d="M40 177.48h180v23H40z" fill="none"/><use xlink:href="#w" transform="matrix(1,0,0,1,40,177.4763779527559) translate(26.976543209876546 14.655555555555555)"/><use xlink:href="#x" transform="matrix(1,0,0,1,40,177.4763779527559) translate(41.001234567901236 14.655555555555555)"/><use xlink:href="#y" transform="matrix(1,0,0,1,40,177.4763779527559) translate(88.24691358024691 14.655555555555555)"/><path d="M313.35 154.8H499.7v68.96H313.35z" fill="#fff" fill-opacity="0"/><path d="M326.55 164.55h17.8c11.2 0 15.26 5.65 15.26 10.52 0 6.44-5.3 13.07-18.72 13.07-1.84 0-3.28-.06-4.86-.32-.33 0-.53-.07-.8-.14l-3.67 14.66c-.13.53-.2 1-.2 1.5 0 1.6 1.2 2.57 5.06 2.57h2.12l-.27 1.07h-22.4l.26-1.06h1.12c5.06 0 6.38-1.83 6.97-4.06l8.2-32.66c.14-.53.27-1.12.27-1.64 0-1.38-1.12-2.44-5.13-2.44h-1.25m14.06 1.58l-4.47 18c1.04.27 2.62.53 3.93.53 6.7 0 11.96-4.6 11.96-11.3 0-3.93-1.98-7.42-8.22-7.42-1.12 0-2.1.07-3.22.2M379.6 218.05l-.8 1.05c-10.38-5.92-16.04-17.02-16.04-28.2 0-12.15 5.72-21.62 16.24-27.86l.6 1.05c-9.15 7.8-11.18 13.92-11.18 26.6 0 12.23 1.97 19.66 11.17 27.35M401.6 188.54l2.96-4.54c1.7-2.62 4-5.52 7.3-5.52 2.1 0 3.22.8 3.22 2.17 0 1.25-.86 2.76-2.57 2.76-1.43 0-1.76-.58-2.88-.58-1.97 0-2.7 1.05-3.6 2.5l-3.63 5.58c1.96 4.08 3.48 12.95 6.43 12.95 1.05 0 2.63-.92 4-3.74l.93.66c-.8 1-3.74 7.3-7.56 7.3-2.7 0-3.94-2.7-4.8-5.06l-2.62-7.43-4.14 6.44c-2.1 3.23-4 6.06-7.7 6.06-2.36 0-3.4-1.65-3.4-3.1 0-1.04.85-2.42 2.5-2.42 1.7 0 1.43 1.3 3.08 1.3.8 0 2.5-.65 4.6-3.87l4.27-6.63-2.18-6.05c-1.12-3.16-2.83-5.86-6.44-5.86-.85 0-1.84.13-2.5.4l-.2-1.2 8.68-2.16c2.9 1.58 4.14 4.28 4.93 6.44M423.16 216.73l-.66-1.25c3.62-2.43 5.46-4.86 5.46-7.03 0-.46-.4-.85-.92-.85-.53 0-1.2.26-1.9.26-2.44 0-3.82-1.12-3.82-3.35s1.58-3.74 3.94-3.74c2.96 0 5.26 2.3 5.26 5.72 0 3.94-2.83 8.08-7.36 10.25M462.85 187.3l1.84 15.43c4-5.45 6.3-9.4 7.75-12.1 1.3-2.42 1.84-3.73 1.84-4.92 0-1.37-3.43-2.02-3.43-4.52 0-1.45 1.18-2.63 3.1-2.63 2.1 0 3.73 1.5 3.73 4.07 0 5.13-10.64 20.9-13.4 24.4-4.8 6.03-9.07 12.47-13.54 12.47-2.43 0-3.68-2.05-3.68-3.62 0-1.97 1.77-2.7 2.63-2.7 2.83 0 2.7 2.04 3.75 2.04 1.12 0 4.87-4.07 6.58-6.7l-2.5-20.64c-.33-2.96-.92-6.9-4.6-6.9-.72 0-1.78.2-2.37.26l-.13-1.05 9.86-1.65c1.5 2.17 1.96 3.88 2.55 8.74M479.68 164.1l.78-1.06c10.06 6.05 16.04 17.02 16.04 28.2 0 12.15-5.78 21.48-16.23 27.86l-.6-1.05c9.34-7.7 11.18-13.87 11.18-26.62 0-12.3-1.65-19.85-11.17-27.34"/><g fill="none"><path d="M374.75 223.76v21.53h-58.6v-21.54z"/><path d="M316.14 223.76c0 2.03 1.64 3.67 3.67 3.67h22c2 0 3.65 1.64 3.65 3.66 0-2.03 1.64-3.67 3.66-3.67h22c2 0 3.65-1.64 3.65-3.67" stroke="#000"/></g><use xlink:href="#z" transform="matrix(1,-2.4492935982947064e-16,2.4492935982947064e-16,1,316.14293157065237,234.75291196697563) translate(-3.7648148148148124 12.622222222222224)"/><g fill="none"><path d="M549.1 328.98v16.2H375.33v-16.2z"/><path d="M375.34 328.98c0 6 4.86 10.86 10.86 10.86h65.15c6 0 10.86 4.86 10.86 10.85 0-6 4.88-10.86 10.87-10.86h65.16c6 0 10.86-4.87 10.86-10.86" stroke="#000"/></g><use xlink:href="#A" transform="matrix(1,-2.4492935982947064e-16,2.4492935982947064e-16,1,375.34103169194015,348.3638919509021) translate(42.340123456790124 12.622222222222224)"/><use xlink:href="#b" transform="matrix(1,-2.4492935982947064e-16,2.4492935982947064e-16,1,375.34103169194015,348.3638919509021) translate(55.48827160493828 12.622222222222224)"/><path d="M40 279.46h180v23H40z" fill="none"/><use xlink:href="#w" transform="matrix(1,0,0,1,40,279.459360885411) translate(23.908641975308655 14.655555555555555)"/><use xlink:href="#B" transform="matrix(1,0,0,1,40,279.459360885411) translate(37.93333333333335 14.655555555555555)"/><use xlink:href="#y" transform="matrix(1,0,0,1,40,279.459360885411) translate(91.31481481481482 14.655555555555555)"/><path d="M313.93 260h246.6v68.98h-246.6z" fill="#fff" fill-opacity="0"/><path d="M327.14 269.77h17.8c11.18 0 15.26 5.65 15.26 10.5 0 6.45-5.33 13.1-18.73 13.1-1.84 0-3.3-.08-4.87-.34-.32 0-.52-.07-.78-.13l-3.68 14.65c-.14.53-.2 1-.2 1.5 0 1.6 1.18 2.58 5.06 2.58h2.1l-.26 1.05h-22.4l.25-1.05h1.1c5.07 0 6.38-1.84 6.98-4.08l8.2-32.66c.14-.53.27-1.13.27-1.65 0-1.38-1.1-2.43-5.12-2.43h-1.25m14.06 1.57l-4.47 18c1.05.26 2.63.53 3.95.53 6.7 0 11.96-4.6 11.96-11.3 0-3.95-1.97-7.43-8.22-7.43-1.12 0-2.1.06-3.22.2M380.17 323.26l-.78 1.05c-10.4-5.9-16.05-17-16.05-28.18 0-12.16 5.72-21.62 16.23-27.87l.6 1.06c-9.14 7.83-11.18 13.94-11.18 26.62 0 12.22 1.97 19.65 11.17 27.34M402.2 293.75l2.95-4.53c1.7-2.63 4-5.52 7.3-5.52 2.1 0 3.2.8 3.2 2.17 0 1.24-.84 2.76-2.55 2.76-1.45 0-1.78-.6-2.9-.6-1.96 0-2.7 1.06-3.6 2.5l-3.62 5.6c1.97 4.06 3.48 12.93 6.44 12.93 1.05 0 2.63-.92 4-3.74l.93.66c-.8.98-3.75 7.3-7.56 7.3-2.7 0-3.95-2.7-4.8-5.07l-2.64-7.42-4.14 6.44c-2.1 3.22-4 6.05-7.68 6.05-2.37 0-3.42-1.64-3.42-3.1 0-1.04.85-2.42 2.5-2.42 1.7 0 1.44 1.3 3.08 1.3.8 0 2.5-.64 4.6-3.86l4.28-6.65-2.17-6.05c-1.1-3.15-2.82-5.85-6.43-5.85-.86 0-1.84.14-2.5.4l-.2-1.18 8.68-2.17c2.9 1.57 4.14 4.27 4.93 6.44M423.75 321.94l-.66-1.24c3.6-2.44 5.44-4.87 5.44-7.04 0-.46-.4-.85-.92-.85s-1.18.27-1.9.27c-2.43 0-3.8-1.1-3.8-3.35 0-2.23 1.56-3.74 3.93-3.74 2.96 0 5.26 2.3 5.26 5.7 0 3.96-2.82 8.1-7.35 10.26M463.44 292.5l1.84 15.45c4-5.46 6.3-9.4 7.75-12.1 1.32-2.43 1.84-3.74 1.84-4.92 0-1.38-3.4-2.04-3.4-4.54 0-1.45 1.17-2.64 3.07-2.64 2.1 0 3.75 1.5 3.75 4.08 0 5.12-10.66 20.9-13.42 24.38-4.8 6.04-9.06 12.5-13.53 12.5-2.43 0-3.68-2.05-3.68-3.63 0-1.98 1.77-2.7 2.63-2.7 2.82 0 2.7 2.03 3.74 2.03 1.12 0 4.86-4.07 6.57-6.7l-2.48-20.63c-.33-2.96-.92-6.9-4.6-6.9-.73 0-1.78.2-2.37.26l-.13-1.05 9.86-1.64c1.5 2.17 1.97 3.88 2.56 8.74M483.8 321.94l-.65-1.24c3.62-2.44 5.46-4.87 5.46-7.04 0-.46-.4-.85-.9-.85-.54 0-1.2.27-1.92.27-2.43 0-3.8-1.1-3.8-3.35 0-2.23 1.57-3.74 3.93-3.74 2.97 0 5.27 2.3 5.27 5.7 0 3.96-2.82 8.1-7.36 10.26M536.45 283.1v1.06l-21.16 23.66.2.06c1.24-.92 2.88-1.38 4.4-1.38 6.04 0 6.23 5.65 9.2 5.65.98 0 1.76-.52 1.76-1.57 0-.86-.78-1.06-.78-2.5 0-1.25 1.24-2.5 2.5-2.5 1.64 0 2.62 1.18 2.62 2.76 0 3.55-3.94 5.26-6.96 5.26-1.45 0-3.1-.6-4.47-.92-2.1-.6-4.34-.92-6.5-.92-2.64 0-5.6.52-8.03 1.58l-.72-.66 21.56-24.32h-8.6c-3.76 0-5.34.4-6.85 4l-1.18-.25 2.37-9h20.63M540.46 269.3l.8-1.05c10.04 6.05 16.02 17.02 16.02 28.2 0 12.15-5.78 21.5-16.23 27.86l-.6-1.04c9.34-7.7 11.18-13.87 11.18-26.62 0-12.3-1.64-19.84-11.17-27.33"/><g fill="none"><path d="M375.34 328.98v21.53h-58.6V329z"/><path d="M316.73 328.98c0 2.02 1.64 3.66 3.66 3.66h21.97c2.03 0 3.67 1.64 3.67 3.66 0-2.02 1.64-3.66 3.66-3.66h21.98c2.02 0 3.66-1.64 3.66-3.66" stroke="#000"/></g><g><use xlink:href="#z" transform="matrix(1,-2.4492935982947064e-16,2.4492935982947064e-16,1,316.7292821880652,339.9664244962084) translate(-3.7648148148148124 12.622222222222224)"/></g><g fill="none"><path d="M449.7 121v28.2h-77.74V121z"/><path d="M371.96 121c0 2.7 2.17 4.87 4.86 4.87h29.15c2.68 0 4.86 2.18 4.86 4.86 0-2.68 2.18-4.86 4.86-4.86h29.14c2.7 0 4.86-2.17 4.86-4.86" stroke="#000"/></g><g><use xlink:href="#C" transform="matrix(1,-2.4492935982947064e-16,2.4492935982947064e-16,1,371.9573889337874,135.58923261778105) translate(4.858641975308643 7.688888888888886)"/></g><path d="M40 76.1h180v23H40z" fill="none"/><g><use xlink:href="#w" transform="matrix(1,0,0,1,40,76.09033552035517) translate(28.707716049382718 14.655555555555555)"/><use xlink:href="#D" transform="matrix(1,0,0,1,40,76.09033552035517) translate(42.73240740740741 14.655555555555555)"/><use xlink:href="#y" transform="matrix(1,0,0,1,40,76.09033552035517) translate(86.51574074074074 14.655555555555555)"/></g><path d="M323.4 53.1h126.3v68.98H323.4z" fill="#fff" fill-opacity="0"/><path d="M336.6 62.87h17.8c11.18 0 15.26 5.65 15.26 10.5 0 6.45-5.32 13.1-18.73 13.1-1.84 0-3.3-.08-4.86-.34-.33 0-.53-.06-.8-.13l-3.67 14.65c-.13.53-.2 1-.2 1.52 0 1.57 1.18 2.56 5.06 2.56h2.1l-.26 1.05h-22.4l.25-1.05h1.12c5.06 0 6.38-1.84 6.97-4.08l8.2-32.66c.14-.53.27-1.12.27-1.65 0-1.38-1.1-2.43-5.1-2.43h-1.26m14.06 1.58l-4.46 18c1.05.27 2.62.53 3.94.53 6.7 0 11.96-4.6 11.96-11.3 0-3.95-1.97-7.43-8.22-7.43-1.1 0-2.1.06-3.22.2M389.64 116.36l-.8 1.05c-10.37-5.9-16.03-17-16.03-28.18 0-12.16 5.73-21.62 16.25-27.86l.6 1.05c-9.15 7.83-11.18 13.94-11.18 26.62 0 12.23 1.97 19.65 11.17 27.34M411.65 86.85l2.96-4.53c1.72-2.63 4.02-5.52 7.3-5.52 2.1 0 3.22.8 3.22 2.17 0 1.25-.85 2.76-2.56 2.76-1.44 0-1.77-.6-2.9-.6-1.96 0-2.68 1.06-3.6 2.5l-3.62 5.6c1.97 4.06 3.48 12.94 6.44 12.94 1.05 0 2.63-.92 4-3.75l.93.66c-.78.98-3.74 7.3-7.55 7.3-2.7 0-3.94-2.7-4.8-5.07l-2.62-7.4-4.14 6.43c-2.12 3.22-4.02 6.04-7.7 6.04-2.37 0-3.42-1.64-3.42-3.1 0-1.04.85-2.42 2.5-2.42 1.7 0 1.44 1.32 3.1 1.32.77 0 2.48-.66 4.6-3.88l4.26-6.65-2.17-6.04c-1.12-3.15-2.83-5.84-6.44-5.84-.86 0-1.84.13-2.5.4l-.2-1.2 8.68-2.16c2.9 1.58 4.15 4.27 4.94 6.44M429.66 62.4l.8-1.04c10.04 6.04 16.02 17.02 16.02 28.2 0 12.15-5.78 21.48-16.23 27.85l-.6-1.04c9.34-7.7 11.18-13.87 11.18-26.6 0-12.3-1.64-19.86-11.17-27.35"/><g fill="none"><path d="M371.96 121v21.54h-58.6V121z"/><path d="M313.35 121c0 2.04 1.64 3.68 3.66 3.68h22c2 0 3.65 1.64 3.65 3.66 0-2.02 1.64-3.66 3.66-3.66h22c2.02 0 3.66-1.64 3.66-3.67" stroke="#000"/></g><g><use xlink:href="#z" transform="matrix(1,-2.4492935982947064e-16,2.4492935982947064e-16,1,313.3456394299121,132.0017326177811) translate(-3.7648148148148124 12.622222222222224)"/></g><defs><path d="M101-251c82-7 93 87 43 132L82-64C71-53 59-42 53-27h129V0H18c2-99 128-94 128-182 0-28-16-43-45-43s-46 15-49 41l-32-3c6-41 34-60 81-64" id="E"/><use transform="matrix(0.043827160493827164,0,0,0.043827160493827164,0,0)" xlink:href="#E" id="a"/><path d="M205 0l-28-72H64L36 0H1l101-248h38L239 0h-34zm-38-99l-47-123c-12 45-31 82-46 123h93" id="F"/><path d="M114-163C36-179 61-72 57 0H25l-1-190h30c1 12-1 29 2 39 6-27 23-49 58-41v29" id="G"/><path d="M177-190C167-65 218 103 67 71c-23-6-38-20-44-43l32-5c15 47 100 32 89-28v-30C133-14 115 1 83 1 29 1 15-40 15-95c0-56 16-97 71-98 29-1 48 16 59 35 1-10 0-23 2-32h30zM94-22c36 0 50-32 50-73 0-42-14-75-50-75-39 0-46 34-46 75s6 73 46 73" id="H"/><path d="M84 4C-5 8 30-112 23-190h32v120c0 31 7 50 39 49 72-2 45-101 50-169h31l1 190h-30c-1-10 1-25-2-33-11 22-28 36-60 37" id="I"/><path d="M210-169c-67 3-38 105-44 169h-31v-121c0-29-5-50-35-48C34-165 62-65 56 0H25l-1-190h30c1 10-1 24 2 32 10-44 99-50 107 0 11-21 27-35 58-36 85-2 47 119 55 194h-31v-121c0-29-5-49-35-48" id="J"/><path d="M100-194c63 0 86 42 84 106H49c0 40 14 67 53 68 26 1 43-12 49-29l28 8c-11 28-37 45-77 45C44 4 14-33 15-96c1-61 26-98 85-98zm52 81c6-60-76-77-97-28-3 7-6 17-6 28h103" id="K"/><path d="M117-194c89-4 53 116 60 194h-32v-121c0-31-8-49-39-48C34-167 62-67 57 0H25l-1-190h30c1 10-1 24 2 32 11-22 29-35 61-36" id="L"/><path d="M59-47c-2 24 18 29 38 22v24C64 9 27 4 27-40v-127H5v-23h24l9-43h21v43h35v23H59v120" id="M"/><path d="M135-143c-3-34-86-38-87 0 15 53 115 12 119 90S17 21 10-45l28-5c4 36 97 45 98 0-10-56-113-15-118-90-4-57 82-63 122-42 12 7 21 19 24 35" id="N"/><g id="b"><use transform="matrix(0.043827160493827164,0,0,0.043827160493827164,0,0)" xlink:href="#F"/><use transform="matrix(0.043827160493827164,0,0,0.043827160493827164,10.518518518518519,0)" xlink:href="#G"/><use transform="matrix(0.043827160493827164,0,0,0.043827160493827164,15.733950617283952,0)" xlink:href="#H"/><use transform="matrix(0.043827160493827164,0,0,0.043827160493827164,24.499382716049386,0)" xlink:href="#I"/><use transform="matrix(0.043827160493827164,0,0,0.043827160493827164,33.26481481481481,0)" xlink:href="#J"/><use transform="matrix(0.043827160493827164,0,0,0.043827160493827164,46.36913580246913,0)" xlink:href="#K"/><use transform="matrix(0.043827160493827164,0,0,0.043827160493827164,55.13456790123456,0)" xlink:href="#L"/><use transform="matrix(0.043827160493827164,0,0,0.043827160493827164,63.89999999999999,0)" xlink:href="#M"/><use transform="matrix(0.043827160493827164,0,0,0.043827160493827164,68.28271604938271,0)" xlink:href="#N"/></g><path d="M30-248c87 1 191-15 191 75 0 78-77 80-158 76V0H30v-248zm33 125c57 0 124 11 124-50 0-59-68-47-124-48v98" id="O"/><path d="M85-194c31 0 48 13 60 33l-1-100h32l1 261h-30c-2-10 0-23-3-31C134-8 116 4 85 4 32 4 16-35 15-94c0-66 23-100 70-100zm9 24c-40 0-46 34-46 75 0 40 6 74 45 74 42 0 51-32 51-76 0-42-9-74-50-73" id="P"/><path d="M24-231v-30h32v30H24zM24 0v-190h32V0H24" id="Q"/><path d="M96-169c-40 0-48 33-48 73s9 75 48 75c24 0 41-14 43-38l32 2c-6 37-31 61-74 61-59 0-76-41-82-99-10-93 101-131 147-64 4 7 5 14 7 22l-32 3c-4-21-16-35-41-35" id="R"/><path d="M141-36C126-15 110 5 73 4 37 3 15-17 15-53c-1-64 63-63 125-63 3-35-9-54-41-54-24 1-41 7-42 31l-33-3c5-37 33-52 76-52 45 0 72 20 72 64v82c-1 20 7 32 28 27v20c-31 9-61-2-59-35zM48-53c0 20 12 33 32 33 41-3 63-29 60-74-43 2-92-5-92 41" id="S"/><g id="c"><use transform="matrix(0.05,0,0,0.05,0,0)" xlink:href="#O"/><use transform="matrix(0.05,0,0,0.05,12,0)" xlink:href="#G"/><use transform="matrix(0.05,0,0,0.05,17.95,0)" xlink:href="#K"/><use transform="matrix(0.05,0,0,0.05,27.950000000000003,0)" xlink:href="#P"/><use transform="matrix(0.05,0,0,0.05,37.95,0)" xlink:href="#Q"/><use transform="matrix(0.05,0,0,0.05,41.900000000000006,0)" xlink:href="#R"/><use transform="matrix(0.05,0,0,0.05,50.900000000000006,0)" xlink:href="#S"/><use transform="matrix(0.05,0,0,0.05,60.900000000000006,0)" xlink:href="#M"/><use transform="matrix(0.05,0,0,0.05,65.9,0)" xlink:href="#K"/><use transform="matrix(0.05,0,0,0.05,75.9,0)" xlink:href="#N"/><path d="M-.9 1.25h91.7v1.32H-.9z"/></g><g id="d"><use transform="matrix(0.05,0,0,0.05,0,0)" xlink:href="#S"/><use transform="matrix(0.05,0,0,0.05,10,0)" xlink:href="#L"/><use transform="matrix(0.05,0,0,0.05,20,0)" xlink:href="#P"/><path d="M-.9 1.25h36.8v1.32H-.9z"/></g><g id="e"><use transform="matrix(0.05,0,0,0.05,0,0)" xlink:href="#F"/><use transform="matrix(0.05,0,0,0.05,12,0)" xlink:href="#G"/><use transform="matrix(0.05,0,0,0.05,17.95,0)" xlink:href="#H"/><use transform="matrix(0.05,0,0,0.05,27.950000000000003,0)" xlink:href="#I"/><use transform="matrix(0.05,0,0,0.05,37.95,0)" xlink:href="#J"/><use transform="matrix(0.05,0,0,0.05,52.900000000000006,0)" xlink:href="#K"/><use transform="matrix(0.05,0,0,0.05,62.900000000000006,0)" xlink:href="#L"/><use transform="matrix(0.05,0,0,0.05,72.9,0)" xlink:href="#M"/><use transform="matrix(0.05,0,0,0.05,77.9,0)" xlink:href="#N"/><path d="M-.9 1.25h88.7v1.32H-.9z"/></g><path d="M185-189c-5-48-123-54-124 2 14 75 158 14 163 119 3 78-121 87-175 55-17-10-28-26-33-46l33-7c5 56 141 63 141-1 0-78-155-14-162-118-5-82 145-84 179-34 5 7 8 16 11 25" id="T"/><path d="M115-194c55 1 70 41 70 98S169 2 115 4C84 4 66-9 55-30l1 105H24l-1-265h31l2 30c10-21 28-34 59-34zm-8 174c40 0 45-34 45-75s-6-73-45-74c-42 0-51 32-51 76 0 43 10 73 51 73" id="U"/><g id="f"><use transform="matrix(0.02530864197530864,0,0,0.02530864197530864,0,0)" xlink:href="#T"/><use transform="matrix(0.02530864197530864,0,0,0.02530864197530864,6.0740740740740735,0)" xlink:href="#K"/><use transform="matrix(0.02530864197530864,0,0,0.02530864197530864,11.1358024691358,0)" xlink:href="#U"/></g><path d="M27 0v-27h64v-190l-56 39v-29l58-41h29v221h61V0H27" id="V"/><path d="M64 0c3-98 48-159 88-221H18v-27h164v26C143-157 98-101 97 0H64" id="W"/><path d="M68-38c1 34 0 65-14 84H32c9-13 17-26 17-46H33v-38h35" id="X"/><g id="g"><use transform="matrix(0.02530864197530864,0,0,0.02530864197530864,0,0)" xlink:href="#V"/><use transform="matrix(0.02530864197530864,0,0,0.02530864197530864,5.061728395061728,0)" xlink:href="#W"/><use transform="matrix(0.02530864197530864,0,0,0.02530864197530864,10.123456790123456,0)" xlink:href="#X"/></g><path d="M101-251c68 0 85 55 85 127S166 4 100 4C33 4 14-52 14-124c0-73 17-127 87-127zm-1 229c47 0 54-49 54-102s-4-102-53-102c-51 0-55 48-55 102 0 53 5 102 54 102" id="Y"/><g id="h"><use transform="matrix(0.02530864197530864,0,0,0.02530864197530864,0,0)" xlink:href="#E"/><use transform="matrix(0.02530864197530864,0,0,0.02530864197530864,5.061728395061728,0)" xlink:href="#Y"/><use transform="matrix(0.02530864197530864,0,0,0.02530864197530864,10.123456790123456,0)" xlink:href="#E"/><use transform="matrix(0.02530864197530864,0,0,0.02530864197530864,15.185185185185183,0)" xlink:href="#Y"/></g><path d="M212-179c-10-28-35-45-73-45-59 0-87 40-87 99 0 60 29 101 89 101 43 0 62-24 78-52l27 14C228-24 195 4 139 4 59 4 22-46 18-125c-6-104 99-153 187-111 19 9 31 26 39 46" id="Z"/><g id="i"><use transform="matrix(0.024691358024691353,0,0,0.024691358024691353,0,0)" xlink:href="#Z"/><use transform="matrix(0.024691358024691353,0,0,0.024691358024691353,6.395061728395061,0)" xlink:href="#G"/><use transform="matrix(0.024691358024691353,0,0,0.024691358024691353,9.333333333333332,0)" xlink:href="#K"/><use transform="matrix(0.024691358024691353,0,0,0.024691358024691353,14.271604938271603,0)" xlink:href="#S"/><use transform="matrix(0.024691358024691353,0,0,0.024691358024691353,19.209876543209873,0)" xlink:href="#M"/><use transform="matrix(0.024691358024691353,0,0,0.024691358024691353,21.67901234567901,0)" xlink:href="#K"/><use transform="matrix(0.024691358024691353,0,0,0.024691358024691353,26.617283950617278,0)" xlink:href="#P"/></g><path d="M160-131c35 5 61 23 61 61C221 17 115-2 30 0v-248c76 3 177-17 177 60 0 33-19 50-47 57zm-97-11c50-1 110 9 110-42 0-47-63-36-110-37v79zm0 115c55-2 124 14 124-45 0-56-70-42-124-44v89" id="aa"/><path d="M179-190L93 31C79 59 56 82 12 73V49c39 6 53-20 64-50L1-190h34L92-34l54-156h33" id="ab"/><g id="j"><use transform="matrix(0.024691358024691353,0,0,0.024691358024691353,0,0)" xlink:href="#aa"/><use transform="matrix(0.024691358024691353,0,0,0.024691358024691353,5.925925925925925,0)" xlink:href="#ab"/></g><path d="M240 0l2-218c-23 76-54 145-80 218h-23L58-218 59 0H30v-248h44l77 211c21-75 51-140 76-211h43V0h-30" id="ac"/><g id="k"><use transform="matrix(0.024691358024691353,0,0,0.024691358024691353,0,0)" xlink:href="#ac"/><use transform="matrix(0.024691358024691353,0,0,0.024691358024691353,7.382716049382714,0)" xlink:href="#S"/><use transform="matrix(0.024691358024691353,0,0,0.024691358024691353,12.320987654320984,0)" xlink:href="#G"/><use transform="matrix(0.024691358024691353,0,0,0.024691358024691353,15.259259259259254,0)" xlink:href="#R"/><use transform="matrix(0.024691358024691353,0,0,0.024691358024691353,19.7037037037037,0)" xlink:href="#I"/><use transform="matrix(0.024691358024691353,0,0,0.024691358024691353,24.641975308641968,0)" xlink:href="#N"/></g><path d="M197 0v-115H63V0H30v-248h33v105h134v-105h34V0h-34" id="ad"/><path d="M24 0v-261h32V0H24" id="ae"/><g id="l"><use transform="matrix(0.024691358024691353,0,0,0.024691358024691353,0,0)" xlink:href="#ad"/><use transform="matrix(0.024691358024691353,0,0,0.024691358024691353,6.395061728395061,0)" xlink:href="#S"/><use transform="matrix(0.024691358024691353,0,0,0.024691358024691353,11.333333333333332,0)" xlink:href="#L"/><use transform="matrix(0.024691358024691353,0,0,0.024691358024691353,16.2716049382716,0)" xlink:href="#P"/><use transform="matrix(0.024691358024691353,0,0,0.024691358024691353,21.209876543209873,0)" xlink:href="#ae"/><use transform="matrix(0.024691358024691353,0,0,0.024691358024691353,23.16049382716049,0)" xlink:href="#K"/><use transform="matrix(0.024691358024691353,0,0,0.024691358024691353,28.09876543209876,0)" xlink:href="#ab"/></g><g id="m"><use transform="matrix(0.024691358024691353,0,0,0.024691358024691353,0,0)" xlink:href="#S"/><use transform="matrix(0.024691358024691353,0,0,0.024691358024691353,4.93827160493827,0)" xlink:href="#L"/><use transform="matrix(0.024691358024691353,0,0,0.024691358024691353,9.87654320987654,0)" xlink:href="#P"/></g><path d="M30 0v-248h187v28H63v79h144v27H63v87h162V0H30" id="af"/><g id="n"><use transform="matrix(0.024691358024691353,0,0,0.024691358024691353,0,0)" xlink:href="#af"/><use transform="matrix(0.024691358024691353,0,0,0.024691358024691353,5.925925925925925,0)" xlink:href="#J"/><use transform="matrix(0.024691358024691353,0,0,0.024691358024691353,13.308641975308639,0)" xlink:href="#Q"/><use transform="matrix(0.024691358024691353,0,0,0.024691358024691353,15.259259259259256,0)" xlink:href="#ae"/><use transform="matrix(0.024691358024691353,0,0,0.024691358024691353,17.209876543209873,0)" xlink:href="#ab"/></g><path d="M30 0v-248h33v221h125V0H30" id="ag"/><path d="M100-194c62-1 85 37 85 99 1 63-27 99-86 99S16-35 15-95c0-66 28-99 85-99zM99-20c44 1 53-31 53-75 0-43-8-75-51-75s-53 32-53 75 10 74 51 75" id="ah"/><path d="M206 0h-36l-40-164L89 0H53L-1-190h32L70-26l43-164h34l41 164 42-164h31" id="ai"/><g id="o"><use transform="matrix(0.024691358024691353,0,0,0.024691358024691353,0,0)" xlink:href="#ag"/><use transform="matrix(0.024691358024691353,0,0,0.024691358024691353,4.93827160493827,0)" xlink:href="#ah"/><use transform="matrix(0.024691358024691353,0,0,0.024691358024691353,9.87654320987654,0)" xlink:href="#ai"/></g><g id="p"><use transform="matrix(0.024691358024691353,0,0,0.024691358024691353,0,0)" xlink:href="#Q"/><use transform="matrix(0.024691358024691353,0,0,0.024691358024691353,1.9506172839506168,0)" xlink:href="#L"/></g><path d="M106-169C34-169 62-67 57 0H25v-261h32l-1 103c12-21 28-36 61-36 89 0 53 116 60 194h-32v-121c2-32-8-49-39-48" id="aj"/><g id="q"><use transform="matrix(0.024691358024691353,0,0,0.024691358024691353,0,0)" xlink:href="#M"/><use transform="matrix(0.024691358024691353,0,0,0.024691358024691353,2.469135802469135,0)" xlink:href="#aj"/><use transform="matrix(0.024691358024691353,0,0,0.024691358024691353,7.407407407407406,0)" xlink:href="#K"/></g><path d="M232-93c-1 65-40 97-104 97C67 4 28-28 28-90v-158h33c8 89-33 224 67 224 102 0 64-133 71-224h33v155" id="ak"/><path d="M266 0h-40l-56-210L115 0H75L2-248h35L96-30l15-64 43-154h32l59 218 59-218h35" id="al"/><g id="r"><use transform="matrix(0.024691358024691353,0,0,0.024691358024691353,0,0)" xlink:href="#ak"/><use transform="matrix(0.024691358024691353,0,0,0.024691358024691353,6.395061728395061,0)" xlink:href="#al"/><use transform="matrix(0.024691358024691353,0,0,0.024691358024691353,14.444444444444441,0)" xlink:href="#F"/></g><g id="s"><use transform="matrix(0.024691358024691353,0,0,0.024691358024691353,0,0)" xlink:href="#T"/><use transform="matrix(0.024691358024691353,0,0,0.024691358024691353,5.925925925925925,0)" xlink:href="#ad"/><use transform="matrix(0.024691358024691353,0,0,0.024691358024691353,12.320987654320986,0)" xlink:href="#ag"/></g><path fill-opacity=".2" d="M240 0l2-218c-23 76-54 145-80 218h-23L58-218 59 0H30v-248h44l77 211c21-75 51-140 76-211h43V0h-30" id="am"/><path fill-opacity=".2" d="M266 0h-40l-56-210L115 0H75L2-248h35L96-30l15-64 43-154h32l59 218 59-218h35" id="an"/><path fill-opacity=".2" d="M197 0v-115H63V0H30v-248h33v105h134v-105h34V0h-34" id="ao"/><g id="t"><use transform="matrix(0.02469135802469136,0,0,0.02469135802469136,0,0)" xlink:href="#am"/><use transform="matrix(0.02469135802469136,0,0,0.02469135802469136,7.382716049382717,0)" xlink:href="#an"/><use transform="matrix(0.02469135802469136,0,0,0.02469135802469136,15.753086419753087,0)" xlink:href="#ao"/></g><path fill-opacity=".2" d="M30 0v-248h187v28H63v79h144v27H63v87h162V0H30" id="ap"/><path fill-opacity=".2" d="M30 0v-248h33v221h125V0H30" id="aq"/><g id="u"><use transform="matrix(0.02469135802469136,0,0,0.02469135802469136,0,0)" xlink:href="#ap"/><use transform="matrix(0.02469135802469136,0,0,0.02469135802469136,5.9259259259259265,0)" xlink:href="#aq"/></g><path fill-opacity=".2" d="M185-189c-5-48-123-54-124 2 14 75 158 14 163 119 3 78-121 87-175 55-17-10-28-26-33-46l33-7c5 56 141 63 141-1 0-78-155-14-162-118-5-82 145-84 179-34 5 7 8 16 11 25" id="ar"/><g id="v"><use transform="matrix(0.02469135802469136,0,0,0.02469135802469136,0,0)" xlink:href="#ar"/><use transform="matrix(0.02469135802469136,0,0,0.02469135802469136,5.9259259259259265,0)" xlink:href="#ao"/><use transform="matrix(0.02469135802469136,0,0,0.02469135802469136,12.320987654320989,0)" xlink:href="#aq"/></g><use transform="matrix(0.043827160493827164,0,0,0.043827160493827164,0,0)" xlink:href="#F" id="w"/><path d="M115-194c53 0 69 39 70 98 0 66-23 100-70 100C84 3 66-7 56-30L54 0H23l1-261h32v101c10-23 28-34 59-34zm-8 174c40 0 45-34 45-75 0-40-5-75-45-74-42 0-51 32-51 76 0 43 10 73 51 73" id="as"/><g id="x"><use transform="matrix(0.043827160493827164,0,0,0.043827160493827164,0,0)" xlink:href="#as"/><use transform="matrix(0.043827160493827164,0,0,0.043827160493827164,8.765432098765432,0)" xlink:href="#Q"/><use transform="matrix(0.043827160493827164,0,0,0.043827160493827164,12.227777777777778,0)" xlink:href="#L"/><use transform="matrix(0.043827160493827164,0,0,0.043827160493827164,20.99320987654321,0)" xlink:href="#S"/><use transform="matrix(0.043827160493827164,0,0,0.043827160493827164,29.758641975308645,0)" xlink:href="#G"/><use transform="matrix(0.043827160493827164,0,0,0.043827160493827164,34.974074074074075,0)" xlink:href="#ab"/></g><g id="y"><use transform="matrix(0.043827160493827164,0,0,0.043827160493827164,0,0)" xlink:href="#U"/><use transform="matrix(0.043827160493827164,0,0,0.043827160493827164,8.765432098765432,0)" xlink:href="#G"/><use transform="matrix(0.043827160493827164,0,0,0.043827160493827164,13.980864197530863,0)" xlink:href="#K"/><use transform="matrix(0.043827160493827164,0,0,0.043827160493827164,22.746296296296293,0)" xlink:href="#P"/><use transform="matrix(0.043827160493827164,0,0,0.043827160493827164,31.511728395061727,0)" xlink:href="#Q"/><use transform="matrix(0.043827160493827164,0,0,0.043827160493827164,34.97407407407407,0)" xlink:href="#R"/><use transform="matrix(0.043827160493827164,0,0,0.043827160493827164,42.86296296296295,0)" xlink:href="#S"/><use transform="matrix(0.043827160493827164,0,0,0.043827160493827164,51.628395061728376,0)" xlink:href="#M"/><use transform="matrix(0.043827160493827164,0,0,0.043827160493827164,56.0111111111111,0)" xlink:href="#K"/></g><g id="z"><use transform="matrix(0.043827160493827164,0,0,0.043827160493827164,0,0)" xlink:href="#O"/><use transform="matrix(0.043827160493827164,0,0,0.043827160493827164,10.518518518518519,0)" xlink:href="#G"/><use transform="matrix(0.043827160493827164,0,0,0.043827160493827164,15.733950617283952,0)" xlink:href="#K"/><use transform="matrix(0.043827160493827164,0,0,0.043827160493827164,24.499382716049386,0)" xlink:href="#P"/><use transform="matrix(0.043827160493827164,0,0,0.043827160493827164,33.26481481481481,0)" xlink:href="#Q"/><use transform="matrix(0.043827160493827164,0,0,0.043827160493827164,36.72716049382716,0)" xlink:href="#R"/><use transform="matrix(0.043827160493827164,0,0,0.043827160493827164,44.61604938271604,0)" xlink:href="#S"/><use transform="matrix(0.043827160493827164,0,0,0.043827160493827164,53.38148148148147,0)" xlink:href="#M"/><use transform="matrix(0.043827160493827164,0,0,0.043827160493827164,57.764197530864195,0)" xlink:href="#K"/></g><path d="M126-127c33 6 58 20 58 59 0 88-139 92-164 29-3-8-5-16-6-25l32-3c6 27 21 44 54 44 32 0 52-15 52-46 0-38-36-46-79-43v-28c39 1 72-4 72-42 0-27-17-43-46-43-28 0-47 15-49 41l-32-3c6-42 35-63 81-64 48-1 79 21 79 65 0 36-21 52-52 59" id="at"/><use transform="matrix(0.043827160493827164,0,0,0.043827160493827164,0,0)" xlink:href="#at" id="A"/><g id="B"><use transform="matrix(0.043827160493827164,0,0,0.043827160493827164,0,0)" xlink:href="#M"/><use transform="matrix(0.043827160493827164,0,0,0.043827160493827164,4.382716049382716,0)" xlink:href="#K"/><use transform="matrix(0.043827160493827164,0,0,0.043827160493827164,13.148148148148149,0)" xlink:href="#G"/><use transform="matrix(0.043827160493827164,0,0,0.043827160493827164,18.363580246913582,0)" xlink:href="#L"/><use transform="matrix(0.043827160493827164,0,0,0.043827160493827164,27.129012345679016,0)" xlink:href="#S"/><use transform="matrix(0.043827160493827164,0,0,0.043827160493827164,35.894444444444446,0)" xlink:href="#G"/><use transform="matrix(0.043827160493827164,0,0,0.043827160493827164,41.10987654320988,0)" xlink:href="#ab"/></g><g id="C"><use transform="matrix(0.043827160493827164,0,0,0.043827160493827164,0,0)" xlink:href="#F"/><use transform="matrix(0.043827160493827164,0,0,0.043827160493827164,10.518518518518519,0)" xlink:href="#G"/><use transform="matrix(0.043827160493827164,0,0,0.043827160493827164,15.733950617283952,0)" xlink:href="#H"/><use transform="matrix(0.043827160493827164,0,0,0.043827160493827164,24.499382716049386,0)" xlink:href="#I"/><use transform="matrix(0.043827160493827164,0,0,0.043827160493827164,33.26481481481481,0)" xlink:href="#J"/><use transform="matrix(0.043827160493827164,0,0,0.043827160493827164,46.36913580246913,0)" xlink:href="#K"/><use transform="matrix(0.043827160493827164,0,0,0.043827160493827164,55.13456790123456,0)" xlink:href="#L"/><use transform="matrix(0.043827160493827164,0,0,0.043827160493827164,63.89999999999999,0)" xlink:href="#M"/></g><g id="D"><use transform="matrix(0.043827160493827164,0,0,0.043827160493827164,0,0)" xlink:href="#I"/><use transform="matrix(0.043827160493827164,0,0,0.043827160493827164,8.765432098765432,0)" xlink:href="#L"/><use transform="matrix(0.043827160493827164,0,0,0.043827160493827164,17.530864197530864,0)" xlink:href="#S"/><use transform="matrix(0.043827160493827164,0,0,0.043827160493827164,26.296296296296298,0)" xlink:href="#G"/><use transform="matrix(0.043827160493827164,0,0,0.043827160493827164,31.51172839506173,0)" xlink:href="#ab"/></g></defs></g></svg>