<svg xmlns="http://www.w3.org/2000/svg" xmlns:xlink="http://www.w3.org/1999/xlink" xmlns:lucid="lucid" width="858.9" height="386"><g transform="translate(20 20)" lucid:page-tab-id="0_0"><path d="M0 0h818.9v377.95H0z" fill="#fff"/><path d="M40 106h220v214H40zM260 106h495.2v214H260z" stroke="#000" stroke-width="2" fill-opacity="0"/><path d="M40 160h715.2v160H40z" stroke="#000" stroke-width="2" fill-opacity="0"/><path d="M55.2 187h180v106h-180z" fill="none"/><use xlink:href="#a" transform="matrix(1,0,0,1,55.1968503937008,186.99999999999997) translate(22.59382716049383 24.955555555555538)"/><use xlink:href="#b" transform="matrix(1,0,0,1,55.1968503937008,186.99999999999997) translate(58.44444444444444 24.955555555555538)"/><use xlink:href="#c" transform="matrix(1,0,0,1,55.1968503937008,186.99999999999997) translate(84.74074074074073 24.955555555555538)"/><use xlink:href="#d" transform="matrix(1,0,0,1,55.1968503937008,186.99999999999997) translate(144.258024691358 24.955555555555538)"/><use xlink:href="#e" transform="matrix(1,0,0,1,55.1968503937008,186.99999999999997) translate(16.501851851851853 43.88888888888887)"/><use xlink:href="#f" transform="matrix(1,0,0,1,55.1968503937008,186.99999999999997) translate(65.45679012345678 43.88888888888887)"/><use xlink:href="#g" transform="matrix(1,0,0,1,55.1968503937008,186.99999999999997) translate(3.813888888888897 62.82222222222221)"/><use xlink:href="#h" transform="matrix(1,0,0,1,55.1968503937008,186.99999999999997) translate(62.366975308641976 62.82222222222221)"/><use xlink:href="#i" transform="matrix(1,0,0,1,55.1968503937008,186.99999999999997) translate(99.09413580246914 62.82222222222221)"/><use xlink:href="#j" transform="matrix(1,0,0,1,55.1968503937008,186.99999999999997) translate(8.174691358024688 81.75555555555555)"/><use xlink:href="#k" transform="matrix(1,0,0,1,55.1968503937008,186.99999999999997) translate(68.61234567901235 81.75555555555555)"/><use xlink:href="#l" transform="matrix(1,0,0,1,55.1968503937008,186.99999999999997) translate(81.76049382716049 81.75555555555555)"/><use xlink:href="#m" transform="matrix(1,0,0,1,55.1968503937008,186.99999999999997) translate(127.25308641975307 81.75555555555555)"/><use xlink:href="#n" transform="matrix(1,0,0,1,55.1968503937008,186.99999999999997) translate(55.398456790123454 100.68888888888888)"/><g fill="none"><path d="M739.26 230.57v50.86H284.98v-50.86z"/><path d="M284.98 230.57c0 15.68 12.7 28.4 28.4 28.4h170.35c15.68 0 28.4 12.7 28.4 28.38 0-15.68 12.7-28.4 28.38-28.4h170.37c15.68 0 28.4-12.7 28.4-28.38" stroke="#000"/></g><use xlink:href="#o" transform="matrix(1,-2.4492935982947064e-16,2.4492935982947064e-16,1,284.9793391557134,293.58860151598833) translate(140.39351851851853 3.6888888888888864)"/><use xlink:href="#p" transform="matrix(1,-2.4492935982947064e-16,2.4492935982947064e-16,1,284.9793391557134,293.58860151598833) translate(188.51574074074074 3.6888888888888864)"/><use xlink:href="#q" transform="matrix(1,-2.4492935982947064e-16,2.4492935982947064e-16,1,284.9793391557134,293.58860151598833) translate(242.77376543209877 3.6888888888888864)"/><path d="M0 0h818.9v40H0z" fill="none"/><use xlink:href="#r" transform="matrix(1,0,0,1,5,5) translate(324.1 18.6)"/><use xlink:href="#s" transform="matrix(1,0,0,1,5,5) translate(386 18.6)"/><path d="M533.98 10h72.04v20h-72.04z" fill="none"/><use xlink:href="#t" transform="matrix(1,0,0,1,538.9752005464426,15) translate(4.419753086419757 7.288888888888889)"/><use xlink:href="#u" transform="matrix(1,0,0,1,538.9752005464426,15) translate(23.14814814814815 7.288888888888889)"/><use xlink:href="#v" transform="matrix(1,0,0,1,538.9752005464426,15) translate(38.33333333333333 7.288888888888889)"/><path d="M298.33 40h253.73v20H298.33z" fill="none"/><g><use xlink:href="#w" transform="matrix(1,0,0,1,303.33279585484735,45) translate(3.3209876543210157 7.111111111111111)"/><use xlink:href="#x" transform="matrix(1,0,0,1,303.33279585484735,45) translate(37.3456790123457 7.111111111111111)"/><use xlink:href="#y" transform="matrix(1,0,0,1,303.33279585484735,45) translate(50.185185185185205 7.111111111111111)"/><use xlink:href="#z" transform="matrix(1,0,0,1,303.33279585484735,45) translate(81.74074074074075 7.111111111111111)"/><use xlink:href="#A" transform="matrix(1,0,0,1,303.33279585484735,45) translate(116.75308641975309 7.111111111111111)"/><use xlink:href="#B" transform="matrix(1,0,0,1,303.33279585484735,45) translate(134.03703703703704 7.111111111111111)"/><use xlink:href="#C" transform="matrix(1,0,0,1,303.33279585484735,45) translate(158.16049382716048 7.111111111111111)"/><use xlink:href="#D" transform="matrix(1,0,0,1,303.33279585484735,45) translate(176.9012345679012 7.111111111111111)"/><use xlink:href="#E" transform="matrix(1,0,0,1,303.33279585484735,45) translate(186.25925925925924 7.111111111111111)"/><use xlink:href="#F" transform="matrix(1,0,0,1,303.33279585484735,45) translate(201.07407407407405 7.111111111111111)"/><use xlink:href="#G" transform="matrix(1,0,0,1,303.33279585484735,45) translate(223.41975308641972 7.111111111111111)"/></g><path d="M680 320h75.2v26H680z" fill="none"/><g><use xlink:href="#H" transform="matrix(1,0,0,1,685.0000000000002,325) translate(5.555555555555554 10.277777777777779)"/><use xlink:href="#I" transform="matrix(1,0,0,1,685.0000000000002,325) translate(30.17283950617284 10.277777777777779)"/><use xlink:href="#J" transform="matrix(1,0,0,1,685.0000000000002,325) translate(43.18518518518519 10.277777777777779)"/></g><path d="M275.2 190.57h160v20h-160z" fill="none"/><g><use xlink:href="#K" transform="matrix(1,0,0,1,275.19685039370074,190.56809769598482) translate(10.880555555555546 13.155555555555555)"/><use xlink:href="#L" transform="matrix(1,0,0,1,275.19685039370074,190.56809769598482) translate(65.13858024691356 13.155555555555555)"/><use xlink:href="#M" transform="matrix(1,0,0,1,275.19685039370074,190.56809769598482) translate(141.354012345679 13.155555555555555)"/></g><path d="M595.2 190.57h160v20h-160z" fill="none"/><g><use xlink:href="#N" transform="matrix(1,0,0,1,595.196850393701,190.56809769598482) translate(10.880555555555546 13.155555555555555)"/><use xlink:href="#O" transform="matrix(1,0,0,1,595.196850393701,190.56809769598482) translate(65.13858024691356 13.155555555555555)"/><use xlink:href="#P" transform="matrix(1,0,0,1,595.196850393701,190.56809769598482) translate(141.354012345679 13.155555555555555)"/></g><path d="M435.2 190.57h160v20h-160z" fill="none"/><g><use xlink:href="#Q" transform="matrix(1,0,0,1,435.19685039370074,190.56809769598482) translate(13.970370370370375 13.155555555555555)"/><use xlink:href="#R" transform="matrix(1,0,0,1,435.19685039370074,190.56809769598482) translate(68.2283950617284 13.155555555555555)"/></g><path d="M275.2 123h160v20h-160z" fill="none"/><g><use xlink:href="#K" transform="matrix(1,0,0,1,275.1968503937005,123) translate(10.880555555555546 13.155555555555555)"/><use xlink:href="#L" transform="matrix(1,0,0,1,275.1968503937005,123) translate(65.13858024691356 13.155555555555555)"/><use xlink:href="#M" transform="matrix(1,0,0,1,275.1968503937005,123) translate(141.354012345679 13.155555555555555)"/></g><path d="M595.2 123h160v20h-160z" fill="none"/><g><use xlink:href="#N" transform="matrix(1,0,0,1,595.196850393701,123) translate(10.880555555555546 13.155555555555555)"/><use xlink:href="#O" transform="matrix(1,0,0,1,595.196850393701,123) translate(65.13858024691356 13.155555555555555)"/><use xlink:href="#P" transform="matrix(1,0,0,1,595.196850393701,123) translate(141.354012345679 13.155555555555555)"/></g><path d="M60 123h180v23H60z" fill="none"/><g><use xlink:href="#S" transform="matrix(1,0,0,1,60.00000000000003,123) translate(6.399691358024697 14.655555555555555)"/><use xlink:href="#T" transform="matrix(1,0,0,1,60.00000000000003,123) translate(39.62067901234568 14.655555555555555)"/><use xlink:href="#U" transform="matrix(1,0,0,1,60.00000000000003,123) translate(93.8787037037037 14.655555555555555)"/></g><defs><path d="M266 0h-40l-56-210L115 0H75L2-248h35L96-30l15-64 43-154h32l59 218 59-218h35" id="V"/><path d="M24-231v-30h32v30H24zM24 0v-190h32V0H24" id="W"/><path d="M59-47c-2 24 18 29 38 22v24C64 9 27 4 27-40v-127H5v-23h24l9-43h21v43h35v23H59v120" id="X"/><path d="M106-169C34-169 62-67 57 0H25v-261h32l-1 103c12-21 28-36 61-36 89 0 53 116 60 194h-32v-121c2-32-8-49-39-48" id="Y"/><g id="a"><use transform="matrix(0.043827160493827164,0,0,0.043827160493827164,0,0)" xlink:href="#V"/><use transform="matrix(0.043827160493827164,0,0,0.043827160493827164,14.857407407407408,0)" xlink:href="#W"/><use transform="matrix(0.043827160493827164,0,0,0.043827160493827164,18.31975308641975,0)" xlink:href="#X"/><use transform="matrix(0.043827160493827164,0,0,0.043827160493827164,22.702469135802467,0)" xlink:href="#Y"/></g><path d="M100-194c63 0 86 42 84 106H49c0 40 14 67 53 68 26 1 43-12 49-29l28 8c-11 28-37 45-77 45C44 4 14-33 15-96c1-61 26-98 85-98zm52 81c6-60-76-77-97-28-3 7-6 17-6 28h103" id="Z"/><g id="b"><use transform="matrix(0.043827160493827164,0,0,0.043827160493827164,0,0)" xlink:href="#X"/><use transform="matrix(0.043827160493827164,0,0,0.043827160493827164,4.382716049382716,0)" xlink:href="#Y"/><use transform="matrix(0.043827160493827164,0,0,0.043827160493827164,13.148148148148149,0)" xlink:href="#Z"/></g><path d="M141-36C126-15 110 5 73 4 37 3 15-17 15-53c-1-64 63-63 125-63 3-35-9-54-41-54-24 1-41 7-42 31l-33-3c5-37 33-52 76-52 45 0 72 20 72 64v82c-1 20 7 32 28 27v20c-31 9-61-2-59-35zM48-53c0 20 12 33 32 33 41-3 63-29 60-74-43 2-92-5-92 41" id="aa"/><path d="M85-194c31 0 48 13 60 33l-1-100h32l1 261h-30c-2-10 0-23-3-31C134-8 116 4 85 4 32 4 16-35 15-94c0-66 23-100 70-100zm9 24c-40 0-46 34-46 75 0 40 6 74 45 74 42 0 51-32 51-76 0-42-9-74-50-73" id="ab"/><path d="M100-194c62-1 85 37 85 99 1 63-27 99-86 99S16-35 15-95c0-66 28-99 85-99zM99-20c44 1 53-31 53-75 0-43-8-75-51-75s-53 32-53 75 10 74 51 75" id="ac"/><path d="M117-194c89-4 53 116 60 194h-32v-121c0-31-8-49-39-48C34-167 62-67 57 0H25l-1-190h30c1 10-1 24 2 32 11-22 29-35 61-36" id="ad"/><g id="c"><use transform="matrix(0.043827160493827164,0,0,0.043827160493827164,0,0)" xlink:href="#aa"/><use transform="matrix(0.043827160493827164,0,0,0.043827160493827164,8.765432098765432,0)" xlink:href="#ab"/><use transform="matrix(0.043827160493827164,0,0,0.043827160493827164,17.530864197530864,0)" xlink:href="#ab"/><use transform="matrix(0.043827160493827164,0,0,0.043827160493827164,26.296296296296298,0)" xlink:href="#W"/><use transform="matrix(0.043827160493827164,0,0,0.043827160493827164,29.758641975308645,0)" xlink:href="#X"/><use transform="matrix(0.043827160493827164,0,0,0.043827160493827164,34.14135802469136,0)" xlink:href="#W"/><use transform="matrix(0.043827160493827164,0,0,0.043827160493827164,37.6037037037037,0)" xlink:href="#ac"/><use transform="matrix(0.043827160493827164,0,0,0.043827160493827164,46.36913580246913,0)" xlink:href="#ad"/></g><path d="M101-234c-31-9-42 10-38 44h38v23H63V0H32v-167H5v-23h27c-7-52 17-82 69-68v24" id="ae"/><g id="d"><use transform="matrix(0.043827160493827164,0,0,0.043827160493827164,0,0)" xlink:href="#ac"/><use transform="matrix(0.043827160493827164,0,0,0.043827160493827164,8.765432098765432,0)" xlink:href="#ae"/></g><path d="M24 0v-261h32V0H24" id="af"/><path d="M177-190C167-65 218 103 67 71c-23-6-38-20-44-43l32-5c15 47 100 32 89-28v-30C133-14 115 1 83 1 29 1 15-40 15-95c0-56 16-97 71-98 29-1 48 16 59 35 1-10 0-23 2-32h30zM94-22c36 0 50-32 50-73 0-42-14-75-50-75-39 0-46 34-46 75s6 73 46 73" id="ag"/><path d="M96-169c-40 0-48 33-48 73s9 75 48 75c24 0 41-14 43-38l32 2c-6 37-31 61-74 61-59 0-76-41-82-99-10-93 101-131 147-64 4 7 5 14 7 22l-32 3c-4-21-16-35-41-35" id="ah"/><g id="e"><use transform="matrix(0.043827160493827164,0,0,0.043827160493827164,0,0)" xlink:href="#af"/><use transform="matrix(0.043827160493827164,0,0,0.043827160493827164,3.462345679012346,0)" xlink:href="#ac"/><use transform="matrix(0.043827160493827164,0,0,0.043827160493827164,12.227777777777778,0)" xlink:href="#ag"/><use transform="matrix(0.043827160493827164,0,0,0.043827160493827164,20.99320987654321,0)" xlink:href="#W"/><use transform="matrix(0.043827160493827164,0,0,0.043827160493827164,24.455555555555556,0)" xlink:href="#ah"/><use transform="matrix(0.043827160493827164,0,0,0.043827160493827164,32.34444444444445,0)" xlink:href="#aa"/><use transform="matrix(0.043827160493827164,0,0,0.043827160493827164,41.10987654320988,0)" xlink:href="#af"/></g><path d="M108 0H70L1-190h34L89-25l56-165h34" id="ai"/><path d="M87 75C49 33 22-17 22-94c0-76 28-126 65-167h31c-38 41-64 92-64 168S80 34 118 75H87" id="aj"/><path d="M135-143c-3-34-86-38-87 0 15 53 115 12 119 90S17 21 10-45l28-5c4 36 97 45 98 0-10-56-113-15-118-90-4-57 82-63 122-42 12 7 21 19 24 35" id="ak"/><path d="M33-261c38 41 65 92 65 168S71 34 33 75H2C39 34 66-17 66-93S39-220 2-261h31" id="al"/><path d="M68-38c1 34 0 65-14 84H32c9-13 17-26 17-46H33v-38h35" id="am"/><g id="f"><use transform="matrix(0.043827160493827164,0,0,0.043827160493827164,0,0)" xlink:href="#ah"/><use transform="matrix(0.043827160493827164,0,0,0.043827160493827164,7.888888888888889,0)" xlink:href="#ac"/><use transform="matrix(0.043827160493827164,0,0,0.043827160493827164,16.654320987654323,0)" xlink:href="#ad"/><use transform="matrix(0.043827160493827164,0,0,0.043827160493827164,25.419753086419753,0)" xlink:href="#ad"/><use transform="matrix(0.043827160493827164,0,0,0.043827160493827164,34.18518518518518,0)" xlink:href="#Z"/><use transform="matrix(0.043827160493827164,0,0,0.043827160493827164,42.95061728395061,0)" xlink:href="#ah"/><use transform="matrix(0.043827160493827164,0,0,0.043827160493827164,50.839506172839506,0)" xlink:href="#X"/><use transform="matrix(0.043827160493827164,0,0,0.043827160493827164,55.22222222222223,0)" xlink:href="#W"/><use transform="matrix(0.043827160493827164,0,0,0.043827160493827164,58.684567901234566,0)" xlink:href="#ai"/><use transform="matrix(0.043827160493827164,0,0,0.043827160493827164,66.57345679012346,0)" xlink:href="#Z"/><use transform="matrix(0.043827160493827164,0,0,0.043827160493827164,75.33888888888889,0)" xlink:href="#aj"/><use transform="matrix(0.043827160493827164,0,0,0.043827160493827164,80.55432098765432,0)" xlink:href="#ak"/><use transform="matrix(0.043827160493827164,0,0,0.043827160493827164,88.44320987654321,0)" xlink:href="#al"/><use transform="matrix(0.043827160493827164,0,0,0.043827160493827164,93.65864197530865,0)" xlink:href="#am"/></g><path d="M210-169c-67 3-38 105-44 169h-31v-121c0-29-5-50-35-48C34-165 62-65 56 0H25l-1-190h30c1 10-1 24 2 32 10-44 99-50 107 0 11-21 27-35 58-36 85-2 47 119 55 194h-31v-121c0-29-5-49-35-48" id="an"/><path d="M84 4C-5 8 30-112 23-190h32v120c0 31 7 50 39 49 72-2 45-101 50-169h31l1 190h-30c-1-10 1-25-2-33-11 22-28 36-60 37" id="ao"/><path d="M115-194c55 1 70 41 70 98S169 2 115 4C84 4 66-9 55-30l1 105H24l-1-265h31l2 30c10-21 28-34 59-34zm-8 174c40 0 45-34 45-75s-6-73-45-74c-42 0-51 32-51 76 0 43 10 73 51 73" id="ap"/><g id="g"><use transform="matrix(0.043827160493827164,0,0,0.043827160493827164,0,0)" xlink:href="#an"/><use transform="matrix(0.043827160493827164,0,0,0.043827160493827164,13.104320987654322,0)" xlink:href="#ao"/><use transform="matrix(0.043827160493827164,0,0,0.043827160493827164,21.869753086419756,0)" xlink:href="#af"/><use transform="matrix(0.043827160493827164,0,0,0.043827160493827164,25.3320987654321,0)" xlink:href="#X"/><use transform="matrix(0.043827160493827164,0,0,0.043827160493827164,29.714814814814815,0)" xlink:href="#W"/><use transform="matrix(0.043827160493827164,0,0,0.043827160493827164,33.17716049382716,0)" xlink:href="#ap"/><use transform="matrix(0.043827160493827164,0,0,0.043827160493827164,41.94259259259259,0)" xlink:href="#af"/><use transform="matrix(0.043827160493827164,0,0,0.043827160493827164,45.404938271604934,0)" xlink:href="#Z"/></g><g id="h"><use transform="matrix(0.043827160493827164,0,0,0.043827160493827164,0,0)" xlink:href="#af"/><use transform="matrix(0.043827160493827164,0,0,0.043827160493827164,3.462345679012346,0)" xlink:href="#ac"/><use transform="matrix(0.043827160493827164,0,0,0.043827160493827164,12.227777777777778,0)" xlink:href="#ag"/><use transform="matrix(0.043827160493827164,0,0,0.043827160493827164,20.99320987654321,0)" xlink:href="#W"/><use transform="matrix(0.043827160493827164,0,0,0.043827160493827164,24.455555555555556,0)" xlink:href="#ah"/></g><g id="i"><use transform="matrix(0.043827160493827164,0,0,0.043827160493827164,0,0)" xlink:href="#ak"/><use transform="matrix(0.043827160493827164,0,0,0.043827160493827164,7.888888888888889,0)" xlink:href="#X"/><use transform="matrix(0.043827160493827164,0,0,0.043827160493827164,12.271604938271603,0)" xlink:href="#aa"/><use transform="matrix(0.043827160493827164,0,0,0.043827160493827164,21.037037037037038,0)" xlink:href="#X"/><use transform="matrix(0.043827160493827164,0,0,0.043827160493827164,25.419753086419753,0)" xlink:href="#Z"/><use transform="matrix(0.043827160493827164,0,0,0.043827160493827164,34.18518518518518,0)" xlink:href="#an"/><use transform="matrix(0.043827160493827164,0,0,0.043827160493827164,47.28950617283951,0)" xlink:href="#Z"/><use transform="matrix(0.043827160493827164,0,0,0.043827160493827164,56.05493827160494,0)" xlink:href="#ad"/><use transform="matrix(0.043827160493827164,0,0,0.043827160493827164,64.82037037037037,0)" xlink:href="#X"/><use transform="matrix(0.043827160493827164,0,0,0.043827160493827164,69.20308641975309,0)" xlink:href="#ak"/></g><path d="M115-194c53 0 69 39 70 98 0 66-23 100-70 100C84 3 66-7 56-30L54 0H23l1-261h32v101c10-23 28-34 59-34zm-8 174c40 0 45-34 45-75 0-40-5-75-45-74-42 0-51 32-51 76 0 43 10 73 51 73" id="aq"/><g id="j"><use transform="matrix(0.043827160493827164,0,0,0.043827160493827164,0,0)" xlink:href="#aq"/><use transform="matrix(0.043827160493827164,0,0,0.043827160493827164,8.765432098765432,0)" xlink:href="#Z"/><use transform="matrix(0.043827160493827164,0,0,0.043827160493827164,17.530864197530864,0)" xlink:href="#ah"/><use transform="matrix(0.043827160493827164,0,0,0.043827160493827164,25.419753086419753,0)" xlink:href="#ac"/><use transform="matrix(0.043827160493827164,0,0,0.043827160493827164,34.18518518518518,0)" xlink:href="#an"/><use transform="matrix(0.043827160493827164,0,0,0.043827160493827164,47.28950617283951,0)" xlink:href="#Z"/></g><use transform="matrix(0.043827160493827164,0,0,0.043827160493827164,0,0)" xlink:href="#aa" id="k"/><g id="l"><use transform="matrix(0.043827160493827164,0,0,0.043827160493827164,0,0)" xlink:href="#ak"/><use transform="matrix(0.043827160493827164,0,0,0.043827160493827164,7.888888888888889,0)" xlink:href="#W"/><use transform="matrix(0.043827160493827164,0,0,0.043827160493827164,11.351234567901235,0)" xlink:href="#ad"/><use transform="matrix(0.043827160493827164,0,0,0.043827160493827164,20.116666666666667,0)" xlink:href="#ag"/><use transform="matrix(0.043827160493827164,0,0,0.043827160493827164,28.882098765432097,0)" xlink:href="#af"/><use transform="matrix(0.043827160493827164,0,0,0.043827160493827164,32.34444444444444,0)" xlink:href="#Z"/></g><g id="m"><use transform="matrix(0.043827160493827164,0,0,0.043827160493827164,0,0)" xlink:href="#af"/><use transform="matrix(0.043827160493827164,0,0,0.043827160493827164,3.462345679012346,0)" xlink:href="#ac"/><use transform="matrix(0.043827160493827164,0,0,0.043827160493827164,12.227777777777778,0)" xlink:href="#ag"/><use transform="matrix(0.043827160493827164,0,0,0.043827160493827164,20.99320987654321,0)" xlink:href="#W"/><use transform="matrix(0.043827160493827164,0,0,0.043827160493827164,24.455555555555556,0)" xlink:href="#ah"/><use transform="matrix(0.043827160493827164,0,0,0.043827160493827164,32.34444444444445,0)" xlink:href="#aa"/><use transform="matrix(0.043827160493827164,0,0,0.043827160493827164,41.10987654320988,0)" xlink:href="#af"/></g><g id="n"><use transform="matrix(0.043827160493827164,0,0,0.043827160493827164,0,0)" xlink:href="#ak"/><use transform="matrix(0.043827160493827164,0,0,0.043827160493827164,7.888888888888889,0)" xlink:href="#X"/><use transform="matrix(0.043827160493827164,0,0,0.043827160493827164,12.271604938271603,0)" xlink:href="#aa"/><use transform="matrix(0.043827160493827164,0,0,0.043827160493827164,21.037037037037038,0)" xlink:href="#X"/><use transform="matrix(0.043827160493827164,0,0,0.043827160493827164,25.419753086419753,0)" xlink:href="#Z"/><use transform="matrix(0.043827160493827164,0,0,0.043827160493827164,34.18518518518518,0)" xlink:href="#an"/><use transform="matrix(0.043827160493827164,0,0,0.043827160493827164,47.28950617283951,0)" xlink:href="#Z"/><use transform="matrix(0.043827160493827164,0,0,0.043827160493827164,56.05493827160494,0)" xlink:href="#ad"/><use transform="matrix(0.043827160493827164,0,0,0.043827160493827164,64.82037037037037,0)" xlink:href="#X"/></g><path fill="#c92d39" d="M185-189c-5-48-123-54-124 2 14 75 158 14 163 119 3 78-121 87-175 55-17-10-28-26-33-46l33-7c5 56 141 63 141-1 0-78-155-14-162-118-5-82 145-84 179-34 5 7 8 16 11 25" id="ar"/><path fill="#c92d39" d="M24-231v-30h32v30H24zM24 0v-190h32V0H24" id="as"/><path fill="#c92d39" d="M117-194c89-4 53 116 60 194h-32v-121c0-31-8-49-39-48C34-167 62-67 57 0H25l-1-190h30c1 10-1 24 2 32 11-22 29-35 61-36" id="at"/><path fill="#c92d39" d="M177-190C167-65 218 103 67 71c-23-6-38-20-44-43l32-5c15 47 100 32 89-28v-30C133-14 115 1 83 1 29 1 15-40 15-95c0-56 16-97 71-98 29-1 48 16 59 35 1-10 0-23 2-32h30zM94-22c36 0 50-32 50-73 0-42-14-75-50-75-39 0-46 34-46 75s6 73 46 73" id="au"/><path fill="#c92d39" d="M24 0v-261h32V0H24" id="av"/><path fill="#c92d39" d="M100-194c63 0 86 42 84 106H49c0 40 14 67 53 68 26 1 43-12 49-29l28 8c-11 28-37 45-77 45C44 4 14-33 15-96c1-61 26-98 85-98zm52 81c6-60-76-77-97-28-3 7-6 17-6 28h103" id="aw"/><g id="o"><use transform="matrix(0.043827160493827164,0,0,0.043827160493827164,0,0)" xlink:href="#ar"/><use transform="matrix(0.043827160493827164,0,0,0.043827160493827164,10.518518518518519,0)" xlink:href="#as"/><use transform="matrix(0.043827160493827164,0,0,0.043827160493827164,13.980864197530865,0)" xlink:href="#at"/><use transform="matrix(0.043827160493827164,0,0,0.043827160493827164,22.746296296296297,0)" xlink:href="#au"/><use transform="matrix(0.043827160493827164,0,0,0.043827160493827164,31.51172839506173,0)" xlink:href="#av"/><use transform="matrix(0.043827160493827164,0,0,0.043827160493827164,34.974074074074075,0)" xlink:href="#aw"/></g><path fill="#c92d39" d="M30 0v-248h33v221h125V0H30" id="ax"/><path fill="#c92d39" d="M100-194c62-1 85 37 85 99 1 63-27 99-86 99S16-35 15-95c0-66 28-99 85-99zM99-20c44 1 53-31 53-75 0-43-8-75-51-75s-53 32-53 75 10 74 51 75" id="ay"/><path fill="#c92d39" d="M96-169c-40 0-48 33-48 73s9 75 48 75c24 0 41-14 43-38l32 2c-6 37-31 61-74 61-59 0-76-41-82-99-10-93 101-131 147-64 4 7 5 14 7 22l-32 3c-4-21-16-35-41-35" id="az"/><path fill="#c92d39" d="M141-36C126-15 110 5 73 4 37 3 15-17 15-53c-1-64 63-63 125-63 3-35-9-54-41-54-24 1-41 7-42 31l-33-3c5-37 33-52 76-52 45 0 72 20 72 64v82c-1 20 7 32 28 27v20c-31 9-61-2-59-35zM48-53c0 20 12 33 32 33 41-3 63-29 60-74-43 2-92-5-92 41" id="aA"/><g id="p"><use transform="matrix(0.043827160493827164,0,0,0.043827160493827164,0,0)" xlink:href="#ax"/><use transform="matrix(0.043827160493827164,0,0,0.043827160493827164,8.765432098765432,0)" xlink:href="#ay"/><use transform="matrix(0.043827160493827164,0,0,0.043827160493827164,17.530864197530864,0)" xlink:href="#au"/><use transform="matrix(0.043827160493827164,0,0,0.043827160493827164,26.296296296296298,0)" xlink:href="#as"/><use transform="matrix(0.043827160493827164,0,0,0.043827160493827164,29.758641975308645,0)" xlink:href="#az"/><use transform="matrix(0.043827160493827164,0,0,0.043827160493827164,37.647530864197535,0)" xlink:href="#aA"/><use transform="matrix(0.043827160493827164,0,0,0.043827160493827164,46.412962962962965,0)" xlink:href="#av"/></g><path fill="#c92d39" d="M59-47c-2 24 18 29 38 22v24C64 9 27 4 27-40v-127H5v-23h24l9-43h21v43h35v23H59v120" id="aB"/><path fill="#c92d39" d="M210-169c-67 3-38 105-44 169h-31v-121c0-29-5-50-35-48C34-165 62-65 56 0H25l-1-190h30c1 10-1 24 2 32 10-44 99-50 107 0 11-21 27-35 58-36 85-2 47 119 55 194h-31v-121c0-29-5-49-35-48" id="aC"/><g id="q"><use transform="matrix(0.043827160493827164,0,0,0.043827160493827164,0,0)" xlink:href="#ar"/><use transform="matrix(0.043827160493827164,0,0,0.043827160493827164,10.518518518518519,0)" xlink:href="#aB"/><use transform="matrix(0.043827160493827164,0,0,0.043827160493827164,14.901234567901232,0)" xlink:href="#aA"/><use transform="matrix(0.043827160493827164,0,0,0.043827160493827164,23.666666666666664,0)" xlink:href="#aB"/><use transform="matrix(0.043827160493827164,0,0,0.043827160493827164,28.04938271604938,0)" xlink:href="#aw"/><use transform="matrix(0.043827160493827164,0,0,0.043827160493827164,36.81481481481481,0)" xlink:href="#aC"/><use transform="matrix(0.043827160493827164,0,0,0.043827160493827164,49.91913580246913,0)" xlink:href="#aw"/><use transform="matrix(0.043827160493827164,0,0,0.043827160493827164,58.684567901234566,0)" xlink:href="#at"/><use transform="matrix(0.043827160493827164,0,0,0.043827160493827164,67.44999999999999,0)" xlink:href="#aB"/></g><path d="M30 0v-248h33v221h125V0H30" id="aD"/><g id="r"><use transform="matrix(0.05,0,0,0.05,0,0)" xlink:href="#aD"/><use transform="matrix(0.05,0,0,0.05,10,0)" xlink:href="#ac"/><use transform="matrix(0.05,0,0,0.05,20,0)" xlink:href="#ag"/><use transform="matrix(0.05,0,0,0.05,30,0)" xlink:href="#W"/><use transform="matrix(0.05,0,0,0.05,33.95,0)" xlink:href="#ah"/><use transform="matrix(0.05,0,0,0.05,42.95,0)" xlink:href="#aa"/><use transform="matrix(0.05,0,0,0.05,52.95,0)" xlink:href="#af"/><path d="M-.9 1.25h63.7v1.32H-.9z"/></g><path d="M212-179c-10-28-35-45-73-45-59 0-87 40-87 99 0 60 29 101 89 101 43 0 62-24 78-52l27 14C228-24 195 4 139 4 59 4 22-46 18-125c-6-104 99-153 187-111 19 9 31 26 39 46" id="aE"/><g id="s"><use transform="matrix(0.05,0,0,0.05,0,0)" xlink:href="#aE"/><use transform="matrix(0.05,0,0,0.05,12.950000000000001,0)" xlink:href="#ac"/><use transform="matrix(0.05,0,0,0.05,22.950000000000003,0)" xlink:href="#ad"/><use transform="matrix(0.05,0,0,0.05,32.95,0)" xlink:href="#ad"/><use transform="matrix(0.05,0,0,0.05,42.95,0)" xlink:href="#Z"/><use transform="matrix(0.05,0,0,0.05,52.95,0)" xlink:href="#ah"/><use transform="matrix(0.05,0,0,0.05,61.95,0)" xlink:href="#X"/><use transform="matrix(0.05,0,0,0.05,66.95,0)" xlink:href="#W"/><use transform="matrix(0.05,0,0,0.05,70.9,0)" xlink:href="#ai"/><use transform="matrix(0.05,0,0,0.05,79.9,0)" xlink:href="#Z"/><use transform="matrix(0.05,0,0,0.05,89.9,0)" xlink:href="#ak"/><path d="M-.9 1.25H99.8v1.32H-.9z"/></g><path d="M185-189c-5-48-123-54-124 2 14 75 158 14 163 119 3 78-121 87-175 55-17-10-28-26-33-46l33-7c5 56 141 63 141-1 0-78-155-14-162-118-5-82 145-84 179-34 5 7 8 16 11 25" id="aF"/><g id="t"><use transform="matrix(0.02530864197530864,0,0,0.02530864197530864,0,0)" xlink:href="#aF"/><use transform="matrix(0.02530864197530864,0,0,0.02530864197530864,6.0740740740740735,0)" xlink:href="#Z"/><use transform="matrix(0.02530864197530864,0,0,0.02530864197530864,11.1358024691358,0)" xlink:href="#ap"/></g><path d="M27 0v-27h64v-190l-56 39v-29l58-41h29v221h61V0H27" id="aG"/><path d="M64 0c3-98 48-159 88-221H18v-27h164v26C143-157 98-101 97 0H64" id="aH"/><g id="u"><use transform="matrix(0.02530864197530864,0,0,0.02530864197530864,0,0)" xlink:href="#aG"/><use transform="matrix(0.02530864197530864,0,0,0.02530864197530864,5.061728395061728,0)" xlink:href="#aH"/><use transform="matrix(0.02530864197530864,0,0,0.02530864197530864,10.123456790123456,0)" xlink:href="#am"/></g><path d="M101-251c82-7 93 87 43 132L82-64C71-53 59-42 53-27h129V0H18c2-99 128-94 128-182 0-28-16-43-45-43s-46 15-49 41l-32-3c6-41 34-60 81-64" id="aI"/><path d="M101-251c68 0 85 55 85 127S166 4 100 4C33 4 14-52 14-124c0-73 17-127 87-127zm-1 229c47 0 54-49 54-102s-4-102-53-102c-51 0-55 48-55 102 0 53 5 102 54 102" id="aJ"/><g id="v"><use transform="matrix(0.02530864197530864,0,0,0.02530864197530864,0,0)" xlink:href="#aI"/><use transform="matrix(0.02530864197530864,0,0,0.02530864197530864,5.061728395061728,0)" xlink:href="#aJ"/><use transform="matrix(0.02530864197530864,0,0,0.02530864197530864,10.123456790123456,0)" xlink:href="#aI"/><use transform="matrix(0.02530864197530864,0,0,0.02530864197530864,15.185185185185183,0)" xlink:href="#aJ"/></g><path d="M114-163C36-179 61-72 57 0H25l-1-190h30c1 12-1 29 2 39 6-27 23-49 58-41v29" id="aK"/><g id="w"><use transform="matrix(0.024691358024691353,0,0,0.024691358024691353,0,0)" xlink:href="#aE"/><use transform="matrix(0.024691358024691353,0,0,0.024691358024691353,6.395061728395061,0)" xlink:href="#aK"/><use transform="matrix(0.024691358024691353,0,0,0.024691358024691353,9.333333333333332,0)" xlink:href="#Z"/><use transform="matrix(0.024691358024691353,0,0,0.024691358024691353,14.271604938271603,0)" xlink:href="#aa"/><use transform="matrix(0.024691358024691353,0,0,0.024691358024691353,19.209876543209873,0)" xlink:href="#X"/><use transform="matrix(0.024691358024691353,0,0,0.024691358024691353,21.67901234567901,0)" xlink:href="#Z"/><use transform="matrix(0.024691358024691353,0,0,0.024691358024691353,26.617283950617278,0)" xlink:href="#ab"/></g><path d="M160-131c35 5 61 23 61 61C221 17 115-2 30 0v-248c76 3 177-17 177 60 0 33-19 50-47 57zm-97-11c50-1 110 9 110-42 0-47-63-36-110-37v79zm0 115c55-2 124 14 124-45 0-56-70-42-124-44v89" id="aL"/><path d="M179-190L93 31C79 59 56 82 12 73V49c39 6 53-20 64-50L1-190h34L92-34l54-156h33" id="aM"/><g id="x"><use transform="matrix(0.024691358024691353,0,0,0.024691358024691353,0,0)" xlink:href="#aL"/><use transform="matrix(0.024691358024691353,0,0,0.024691358024691353,5.925925925925925,0)" xlink:href="#aM"/></g><path d="M240 0l2-218c-23 76-54 145-80 218h-23L58-218 59 0H30v-248h44l77 211c21-75 51-140 76-211h43V0h-30" id="aN"/><g id="y"><use transform="matrix(0.024691358024691353,0,0,0.024691358024691353,0,0)" xlink:href="#aN"/><use transform="matrix(0.024691358024691353,0,0,0.024691358024691353,7.382716049382714,0)" xlink:href="#aa"/><use transform="matrix(0.024691358024691353,0,0,0.024691358024691353,12.320987654320984,0)" xlink:href="#aK"/><use transform="matrix(0.024691358024691353,0,0,0.024691358024691353,15.259259259259254,0)" xlink:href="#ah"/><use transform="matrix(0.024691358024691353,0,0,0.024691358024691353,19.7037037037037,0)" xlink:href="#ao"/><use transform="matrix(0.024691358024691353,0,0,0.024691358024691353,24.641975308641968,0)" xlink:href="#ak"/></g><path d="M197 0v-115H63V0H30v-248h33v105h134v-105h34V0h-34" id="aO"/><g id="z"><use transform="matrix(0.024691358024691353,0,0,0.024691358024691353,0,0)" xlink:href="#aO"/><use transform="matrix(0.024691358024691353,0,0,0.024691358024691353,6.395061728395061,0)" xlink:href="#aa"/><use transform="matrix(0.024691358024691353,0,0,0.024691358024691353,11.333333333333332,0)" xlink:href="#ad"/><use transform="matrix(0.024691358024691353,0,0,0.024691358024691353,16.2716049382716,0)" xlink:href="#ab"/><use transform="matrix(0.024691358024691353,0,0,0.024691358024691353,21.209876543209873,0)" xlink:href="#af"/><use transform="matrix(0.024691358024691353,0,0,0.024691358024691353,23.16049382716049,0)" xlink:href="#Z"/><use transform="matrix(0.024691358024691353,0,0,0.024691358024691353,28.09876543209876,0)" xlink:href="#aM"/></g><g id="A"><use transform="matrix(0.024691358024691353,0,0,0.024691358024691353,0,0)" xlink:href="#aa"/><use transform="matrix(0.024691358024691353,0,0,0.024691358024691353,4.93827160493827,0)" xlink:href="#ad"/><use transform="matrix(0.024691358024691353,0,0,0.024691358024691353,9.87654320987654,0)" xlink:href="#ab"/></g><path d="M30 0v-248h187v28H63v79h144v27H63v87h162V0H30" id="aP"/><g id="B"><use transform="matrix(0.024691358024691353,0,0,0.024691358024691353,0,0)" xlink:href="#aP"/><use transform="matrix(0.024691358024691353,0,0,0.024691358024691353,5.925925925925925,0)" xlink:href="#an"/><use transform="matrix(0.024691358024691353,0,0,0.024691358024691353,13.308641975308639,0)" xlink:href="#W"/><use transform="matrix(0.024691358024691353,0,0,0.024691358024691353,15.259259259259256,0)" xlink:href="#af"/><use transform="matrix(0.024691358024691353,0,0,0.024691358024691353,17.209876543209873,0)" xlink:href="#aM"/></g><path d="M206 0h-36l-40-164L89 0H53L-1-190h32L70-26l43-164h34l41 164 42-164h31" id="aQ"/><g id="C"><use transform="matrix(0.024691358024691353,0,0,0.024691358024691353,0,0)" xlink:href="#aD"/><use transform="matrix(0.024691358024691353,0,0,0.024691358024691353,4.93827160493827,0)" xlink:href="#ac"/><use transform="matrix(0.024691358024691353,0,0,0.024691358024691353,9.87654320987654,0)" xlink:href="#aQ"/></g><g id="D"><use transform="matrix(0.024691358024691353,0,0,0.024691358024691353,0,0)" xlink:href="#W"/><use transform="matrix(0.024691358024691353,0,0,0.024691358024691353,1.9506172839506168,0)" xlink:href="#ad"/></g><g id="E"><use transform="matrix(0.024691358024691353,0,0,0.024691358024691353,0,0)" xlink:href="#X"/><use transform="matrix(0.024691358024691353,0,0,0.024691358024691353,2.469135802469135,0)" xlink:href="#Y"/><use transform="matrix(0.024691358024691353,0,0,0.024691358024691353,7.407407407407406,0)" xlink:href="#Z"/></g><path d="M232-93c-1 65-40 97-104 97C67 4 28-28 28-90v-158h33c8 89-33 224 67 224 102 0 64-133 71-224h33v155" id="aR"/><path d="M205 0l-28-72H64L36 0H1l101-248h38L239 0h-34zm-38-99l-47-123c-12 45-31 82-46 123h93" id="aS"/><g id="F"><use transform="matrix(0.024691358024691353,0,0,0.024691358024691353,0,0)" xlink:href="#aR"/><use transform="matrix(0.024691358024691353,0,0,0.024691358024691353,6.395061728395061,0)" xlink:href="#V"/><use transform="matrix(0.024691358024691353,0,0,0.024691358024691353,14.444444444444441,0)" xlink:href="#aS"/></g><g id="G"><use transform="matrix(0.024691358024691353,0,0,0.024691358024691353,0,0)" xlink:href="#aF"/><use transform="matrix(0.024691358024691353,0,0,0.024691358024691353,5.925925925925925,0)" xlink:href="#aO"/><use transform="matrix(0.024691358024691353,0,0,0.024691358024691353,12.320987654320986,0)" xlink:href="#aD"/></g><path fill-opacity=".2" d="M240 0l2-218c-23 76-54 145-80 218h-23L58-218 59 0H30v-248h44l77 211c21-75 51-140 76-211h43V0h-30" id="aT"/><path fill-opacity=".2" d="M266 0h-40l-56-210L115 0H75L2-248h35L96-30l15-64 43-154h32l59 218 59-218h35" id="aU"/><path fill-opacity=".2" d="M197 0v-115H63V0H30v-248h33v105h134v-105h34V0h-34" id="aV"/><g id="H"><use transform="matrix(0.02469135802469136,0,0,0.02469135802469136,0,0)" xlink:href="#aT"/><use transform="matrix(0.02469135802469136,0,0,0.02469135802469136,7.382716049382717,0)" xlink:href="#aU"/><use transform="matrix(0.02469135802469136,0,0,0.02469135802469136,15.753086419753087,0)" xlink:href="#aV"/></g><path fill-opacity=".2" d="M30 0v-248h187v28H63v79h144v27H63v87h162V0H30" id="aW"/><path fill-opacity=".2" d="M30 0v-248h33v221h125V0H30" id="aX"/><g id="I"><use transform="matrix(0.02469135802469136,0,0,0.02469135802469136,0,0)" xlink:href="#aW"/><use transform="matrix(0.02469135802469136,0,0,0.02469135802469136,5.9259259259259265,0)" xlink:href="#aX"/></g><path fill-opacity=".2" d="M185-189c-5-48-123-54-124 2 14 75 158 14 163 119 3 78-121 87-175 55-17-10-28-26-33-46l33-7c5 56 141 63 141-1 0-78-155-14-162-118-5-82 145-84 179-34 5 7 8 16 11 25" id="aY"/><g id="J"><use transform="matrix(0.02469135802469136,0,0,0.02469135802469136,0,0)" xlink:href="#aY"/><use transform="matrix(0.02469135802469136,0,0,0.02469135802469136,5.9259259259259265,0)" xlink:href="#aV"/><use transform="matrix(0.02469135802469136,0,0,0.02469135802469136,12.320987654320989,0)" xlink:href="#aX"/></g><g id="K"><use transform="matrix(0.043827160493827164,0,0,0.043827160493827164,0,0)" xlink:href="#ax"/><use transform="matrix(0.043827160493827164,0,0,0.043827160493827164,8.765432098765432,0)" xlink:href="#ay"/><use transform="matrix(0.043827160493827164,0,0,0.043827160493827164,17.530864197530864,0)" xlink:href="#au"/><use transform="matrix(0.043827160493827164,0,0,0.043827160493827164,26.296296296296298,0)" xlink:href="#as"/><use transform="matrix(0.043827160493827164,0,0,0.043827160493827164,29.758641975308645,0)" xlink:href="#az"/><use transform="matrix(0.043827160493827164,0,0,0.043827160493827164,37.647530864197535,0)" xlink:href="#aA"/><use transform="matrix(0.043827160493827164,0,0,0.043827160493827164,46.412962962962965,0)" xlink:href="#av"/></g><g id="L"><use transform="matrix(0.043827160493827164,0,0,0.043827160493827164,0,0)" xlink:href="#ar"/><use transform="matrix(0.043827160493827164,0,0,0.043827160493827164,10.518518518518519,0)" xlink:href="#aB"/><use transform="matrix(0.043827160493827164,0,0,0.043827160493827164,14.901234567901232,0)" xlink:href="#aA"/><use transform="matrix(0.043827160493827164,0,0,0.043827160493827164,23.666666666666664,0)" xlink:href="#aB"/><use transform="matrix(0.043827160493827164,0,0,0.043827160493827164,28.04938271604938,0)" xlink:href="#aw"/><use transform="matrix(0.043827160493827164,0,0,0.043827160493827164,36.81481481481481,0)" xlink:href="#aC"/><use transform="matrix(0.043827160493827164,0,0,0.043827160493827164,49.91913580246913,0)" xlink:href="#aw"/><use transform="matrix(0.043827160493827164,0,0,0.043827160493827164,58.684567901234566,0)" xlink:href="#at"/><use transform="matrix(0.043827160493827164,0,0,0.043827160493827164,67.44999999999999,0)" xlink:href="#aB"/></g><path fill="#c92d39" d="M27 0v-27h64v-190l-56 39v-29l58-41h29v221h61V0H27" id="aZ"/><use transform="matrix(0.043827160493827164,0,0,0.043827160493827164,0,0)" xlink:href="#aZ" id="M"/><path fill="#0c7cba" d="M30 0v-248h33v221h125V0H30" id="ba"/><path fill="#0c7cba" d="M100-194c62-1 85 37 85 99 1 63-27 99-86 99S16-35 15-95c0-66 28-99 85-99zM99-20c44 1 53-31 53-75 0-43-8-75-51-75s-53 32-53 75 10 74 51 75" id="bb"/><path fill="#0c7cba" d="M177-190C167-65 218 103 67 71c-23-6-38-20-44-43l32-5c15 47 100 32 89-28v-30C133-14 115 1 83 1 29 1 15-40 15-95c0-56 16-97 71-98 29-1 48 16 59 35 1-10 0-23 2-32h30zM94-22c36 0 50-32 50-73 0-42-14-75-50-75-39 0-46 34-46 75s6 73 46 73" id="bc"/><path fill="#0c7cba" d="M24-231v-30h32v30H24zM24 0v-190h32V0H24" id="bd"/><path fill="#0c7cba" d="M96-169c-40 0-48 33-48 73s9 75 48 75c24 0 41-14 43-38l32 2c-6 37-31 61-74 61-59 0-76-41-82-99-10-93 101-131 147-64 4 7 5 14 7 22l-32 3c-4-21-16-35-41-35" id="be"/><path fill="#0c7cba" d="M141-36C126-15 110 5 73 4 37 3 15-17 15-53c-1-64 63-63 125-63 3-35-9-54-41-54-24 1-41 7-42 31l-33-3c5-37 33-52 76-52 45 0 72 20 72 64v82c-1 20 7 32 28 27v20c-31 9-61-2-59-35zM48-53c0 20 12 33 32 33 41-3 63-29 60-74-43 2-92-5-92 41" id="bf"/><path fill="#0c7cba" d="M24 0v-261h32V0H24" id="bg"/><g id="N"><use transform="matrix(0.043827160493827164,0,0,0.043827160493827164,0,0)" xlink:href="#ba"/><use transform="matrix(0.043827160493827164,0,0,0.043827160493827164,8.765432098765432,0)" xlink:href="#bb"/><use transform="matrix(0.043827160493827164,0,0,0.043827160493827164,17.530864197530864,0)" xlink:href="#bc"/><use transform="matrix(0.043827160493827164,0,0,0.043827160493827164,26.296296296296298,0)" xlink:href="#bd"/><use transform="matrix(0.043827160493827164,0,0,0.043827160493827164,29.758641975308645,0)" xlink:href="#be"/><use transform="matrix(0.043827160493827164,0,0,0.043827160493827164,37.647530864197535,0)" xlink:href="#bf"/><use transform="matrix(0.043827160493827164,0,0,0.043827160493827164,46.412962962962965,0)" xlink:href="#bg"/></g><path fill="#0c7cba" d="M185-189c-5-48-123-54-124 2 14 75 158 14 163 119 3 78-121 87-175 55-17-10-28-26-33-46l33-7c5 56 141 63 141-1 0-78-155-14-162-118-5-82 145-84 179-34 5 7 8 16 11 25" id="bh"/><path fill="#0c7cba" d="M59-47c-2 24 18 29 38 22v24C64 9 27 4 27-40v-127H5v-23h24l9-43h21v43h35v23H59v120" id="bi"/><path fill="#0c7cba" d="M100-194c63 0 86 42 84 106H49c0 40 14 67 53 68 26 1 43-12 49-29l28 8c-11 28-37 45-77 45C44 4 14-33 15-96c1-61 26-98 85-98zm52 81c6-60-76-77-97-28-3 7-6 17-6 28h103" id="bj"/><path fill="#0c7cba" d="M210-169c-67 3-38 105-44 169h-31v-121c0-29-5-50-35-48C34-165 62-65 56 0H25l-1-190h30c1 10-1 24 2 32 10-44 99-50 107 0 11-21 27-35 58-36 85-2 47 119 55 194h-31v-121c0-29-5-49-35-48" id="bk"/><path fill="#0c7cba" d="M117-194c89-4 53 116 60 194h-32v-121c0-31-8-49-39-48C34-167 62-67 57 0H25l-1-190h30c1 10-1 24 2 32 11-22 29-35 61-36" id="bl"/><g id="O"><use transform="matrix(0.043827160493827164,0,0,0.043827160493827164,0,0)" xlink:href="#bh"/><use transform="matrix(0.043827160493827164,0,0,0.043827160493827164,10.518518518518519,0)" xlink:href="#bi"/><use transform="matrix(0.043827160493827164,0,0,0.043827160493827164,14.901234567901232,0)" xlink:href="#bf"/><use transform="matrix(0.043827160493827164,0,0,0.043827160493827164,23.666666666666664,0)" xlink:href="#bi"/><use transform="matrix(0.043827160493827164,0,0,0.043827160493827164,28.04938271604938,0)" xlink:href="#bj"/><use transform="matrix(0.043827160493827164,0,0,0.043827160493827164,36.81481481481481,0)" xlink:href="#bk"/><use transform="matrix(0.043827160493827164,0,0,0.043827160493827164,49.91913580246913,0)" xlink:href="#bj"/><use transform="matrix(0.043827160493827164,0,0,0.043827160493827164,58.684567901234566,0)" xlink:href="#bl"/><use transform="matrix(0.043827160493827164,0,0,0.043827160493827164,67.44999999999999,0)" xlink:href="#bi"/></g><path fill="#0c7cba" d="M101-251c82-7 93 87 43 132L82-64C71-53 59-42 53-27h129V0H18c2-99 128-94 128-182 0-28-16-43-45-43s-46 15-49 41l-32-3c6-41 34-60 81-64" id="bm"/><use transform="matrix(0.043827160493827164,0,0,0.043827160493827164,0,0)" xlink:href="#bm" id="P"/><g id="Q"><use transform="matrix(0.043827160493827164,0,0,0.043827160493827164,0,0)" xlink:href="#aD"/><use transform="matrix(0.043827160493827164,0,0,0.043827160493827164,8.765432098765432,0)" xlink:href="#ac"/><use transform="matrix(0.043827160493827164,0,0,0.043827160493827164,17.530864197530864,0)" xlink:href="#ag"/><use transform="matrix(0.043827160493827164,0,0,0.043827160493827164,26.296296296296298,0)" xlink:href="#W"/><use transform="matrix(0.043827160493827164,0,0,0.043827160493827164,29.758641975308645,0)" xlink:href="#ah"/><use transform="matrix(0.043827160493827164,0,0,0.043827160493827164,37.647530864197535,0)" xlink:href="#aa"/><use transform="matrix(0.043827160493827164,0,0,0.043827160493827164,46.412962962962965,0)" xlink:href="#af"/></g><g id="R"><use transform="matrix(0.043827160493827164,0,0,0.043827160493827164,0,0)" xlink:href="#aE"/><use transform="matrix(0.043827160493827164,0,0,0.043827160493827164,11.351234567901235,0)" xlink:href="#ac"/><use transform="matrix(0.043827160493827164,0,0,0.043827160493827164,20.116666666666667,0)" xlink:href="#ad"/><use transform="matrix(0.043827160493827164,0,0,0.043827160493827164,28.882098765432097,0)" xlink:href="#ad"/><use transform="matrix(0.043827160493827164,0,0,0.043827160493827164,37.64753086419753,0)" xlink:href="#Z"/><use transform="matrix(0.043827160493827164,0,0,0.043827160493827164,46.41296296296296,0)" xlink:href="#ah"/><use transform="matrix(0.043827160493827164,0,0,0.043827160493827164,54.30185185185184,0)" xlink:href="#X"/><use transform="matrix(0.043827160493827164,0,0,0.043827160493827164,58.684567901234566,0)" xlink:href="#W"/><use transform="matrix(0.043827160493827164,0,0,0.043827160493827164,62.14691358024691,0)" xlink:href="#ai"/><use transform="matrix(0.043827160493827164,0,0,0.043827160493827164,70.0358024691358,0)" xlink:href="#Z"/></g><path d="M127-220V0H93v-220H8v-28h204v28h-85" id="bn"/><g id="S"><use transform="matrix(0.043827160493827164,0,0,0.043827160493827164,0,0)" xlink:href="#bn"/><use transform="matrix(0.043827160493827164,0,0,0.043827160493827164,8.721604938271605,0)" xlink:href="#aQ"/><use transform="matrix(0.043827160493827164,0,0,0.043827160493827164,20.07283950617284,0)" xlink:href="#ac"/></g><g id="T"><use transform="matrix(0.043827160493827164,0,0,0.043827160493827164,0,0)" xlink:href="#aD"/><use transform="matrix(0.043827160493827164,0,0,0.043827160493827164,8.765432098765432,0)" xlink:href="#ac"/><use transform="matrix(0.043827160493827164,0,0,0.043827160493827164,17.530864197530864,0)" xlink:href="#ag"/><use transform="matrix(0.043827160493827164,0,0,0.043827160493827164,26.296296296296298,0)" xlink:href="#W"/><use transform="matrix(0.043827160493827164,0,0,0.043827160493827164,29.758641975308645,0)" xlink:href="#ah"/><use transform="matrix(0.043827160493827164,0,0,0.043827160493827164,37.647530864197535,0)" xlink:href="#aa"/><use transform="matrix(0.043827160493827164,0,0,0.043827160493827164,46.412962962962965,0)" xlink:href="#af"/></g><g id="U"><use transform="matrix(0.043827160493827164,0,0,0.043827160493827164,0,0)" xlink:href="#aF"/><use transform="matrix(0.043827160493827164,0,0,0.043827160493827164,10.518518518518519,0)" xlink:href="#X"/><use transform="matrix(0.043827160493827164,0,0,0.043827160493827164,14.901234567901232,0)" xlink:href="#aa"/><use transform="matrix(0.043827160493827164,0,0,0.043827160493827164,23.666666666666664,0)" xlink:href="#X"/><use transform="matrix(0.043827160493827164,0,0,0.043827160493827164,28.04938271604938,0)" xlink:href="#Z"/><use transform="matrix(0.043827160493827164,0,0,0.043827160493827164,36.81481481481481,0)" xlink:href="#an"/><use transform="matrix(0.043827160493827164,0,0,0.043827160493827164,49.91913580246913,0)" xlink:href="#Z"/><use transform="matrix(0.043827160493827164,0,0,0.043827160493827164,58.684567901234566,0)" xlink:href="#ad"/><use transform="matrix(0.043827160493827164,0,0,0.043827160493827164,67.44999999999999,0)" xlink:href="#X"/><use transform="matrix(0.043827160493827164,0,0,0.043827160493827164,71.83271604938271,0)" xlink:href="#ak"/></g></defs></g></svg>